# Auto-generated – ocean simulation city asset
mtllib boat_small.mtl

v  -2.0000 0.0000 -4.0000
v  -2.0000 1.2000 -4.0000
v  2.0000 1.2000 -4.0000
v  2.0000 0.0000 -4.0000
v  2.0000 0.0000 4.0000
v  2.0000 1.2000 4.0000
v  -2.0000 1.2000 4.0000
v  -2.0000 0.0000 4.0000
v  -2.0000 0.0000 4.0000
v  -2.0000 1.2000 4.0000
v  -2.0000 1.2000 -4.0000
v  -2.0000 0.0000 -4.0000
v  2.0000 0.0000 -4.0000
v  2.0000 1.2000 -4.0000
v  2.0000 1.2000 4.0000
v  2.0000 0.0000 4.0000
v  -2.0000 0.0000 4.0000
v  -2.0000 0.0000 -4.0000
v  2.0000 0.0000 -4.0000
v  2.0000 0.0000 4.0000
v  -2.0000 1.2000 -4.0000
v  -2.0000 1.2000 4.0000
v  2.0000 1.2000 4.0000
v  2.0000 1.2000 -4.0000
v  -1.2000 0.0000 -5.6000
v  -1.2000 0.8000 -5.6000
v  1.2000 0.8000 -5.6000
v  1.2000 0.0000 -5.6000
v  1.2000 0.0000 -4.0000
v  1.2000 0.8000 -4.0000
v  -1.2000 0.8000 -4.0000
v  -1.2000 0.0000 -4.0000
v  -1.2000 0.0000 -4.0000
v  -1.2000 0.8000 -4.0000
v  -1.2000 0.8000 -5.6000
v  -1.2000 0.0000 -5.6000
v  1.2000 0.0000 -5.6000
v  1.2000 0.8000 -5.6000
v  1.2000 0.8000 -4.0000
v  1.2000 0.0000 -4.0000
v  -1.2000 0.0000 -4.0000
v  -1.2000 0.0000 -5.6000
v  1.2000 0.0000 -5.6000
v  1.2000 0.0000 -4.0000
v  -1.2000 0.8000 -5.6000
v  -1.2000 0.8000 -4.0000
v  1.2000 0.8000 -4.0000
v  1.2000 0.8000 -5.6000
v  -1.5000 0.0000 4.0000
v  -1.5000 0.8000 4.0000
v  1.5000 0.8000 4.0000
v  1.5000 0.0000 4.0000
v  1.5000 0.0000 5.0000
v  1.5000 0.8000 5.0000
v  -1.5000 0.8000 5.0000
v  -1.5000 0.0000 5.0000
v  -1.5000 0.0000 5.0000
v  -1.5000 0.8000 5.0000
v  -1.5000 0.8000 4.0000
v  -1.5000 0.0000 4.0000
v  1.5000 0.0000 4.0000
v  1.5000 0.8000 4.0000
v  1.5000 0.8000 5.0000
v  1.5000 0.0000 5.0000
v  -1.5000 0.0000 5.0000
v  -1.5000 0.0000 4.0000
v  1.5000 0.0000 4.0000
v  1.5000 0.0000 5.0000
v  -1.5000 0.8000 4.0000
v  -1.5000 0.8000 5.0000
v  1.5000 0.8000 5.0000
v  1.5000 0.8000 4.0000
v  -2.2500 1.0000 -3.8000
v  -2.2500 1.4500 -3.8000
v  -2.0000 1.4500 -3.8000
v  -2.0000 1.0000 -3.8000
v  -2.0000 1.0000 3.8000
v  -2.0000 1.4500 3.8000
v  -2.2500 1.4500 3.8000
v  -2.2500 1.0000 3.8000
v  -2.2500 1.0000 3.8000
v  -2.2500 1.4500 3.8000
v  -2.2500 1.4500 -3.8000
v  -2.2500 1.0000 -3.8000
v  -2.0000 1.0000 -3.8000
v  -2.0000 1.4500 -3.8000
v  -2.0000 1.4500 3.8000
v  -2.0000 1.0000 3.8000
v  -2.2500 1.0000 3.8000
v  -2.2500 1.0000 -3.8000
v  -2.0000 1.0000 -3.8000
v  -2.0000 1.0000 3.8000
v  -2.2500 1.4500 -3.8000
v  -2.2500 1.4500 3.8000
v  -2.0000 1.4500 3.8000
v  -2.0000 1.4500 -3.8000
v  2.0000 1.0000 -3.8000
v  2.0000 1.4500 -3.8000
v  2.2500 1.4500 -3.8000
v  2.2500 1.0000 -3.8000
v  2.2500 1.0000 3.8000
v  2.2500 1.4500 3.8000
v  2.0000 1.4500 3.8000
v  2.0000 1.0000 3.8000
v  2.0000 1.0000 3.8000
v  2.0000 1.4500 3.8000
v  2.0000 1.4500 -3.8000
v  2.0000 1.0000 -3.8000
v  2.2500 1.0000 -3.8000
v  2.2500 1.4500 -3.8000
v  2.2500 1.4500 3.8000
v  2.2500 1.0000 3.8000
v  2.0000 1.0000 3.8000
v  2.0000 1.0000 -3.8000
v  2.2500 1.0000 -3.8000
v  2.2500 1.0000 3.8000
v  2.0000 1.4500 -3.8000
v  2.0000 1.4500 3.8000
v  2.2500 1.4500 3.8000
v  2.2500 1.4500 -3.8000
v  -1.2000 1.2000 -1.5000
v  -1.2000 2.6000 -1.5000
v  1.2000 2.6000 -1.5000
v  1.2000 1.2000 -1.5000
v  1.2000 1.2000 2.0000
v  1.2000 2.6000 2.0000
v  -1.2000 2.6000 2.0000
v  -1.2000 1.2000 2.0000
v  -1.2000 1.2000 2.0000
v  -1.2000 2.6000 2.0000
v  -1.2000 2.6000 -1.5000
v  -1.2000 1.2000 -1.5000
v  1.2000 1.2000 -1.5000
v  1.2000 2.6000 -1.5000
v  1.2000 2.6000 2.0000
v  1.2000 1.2000 2.0000
v  -1.2000 1.2000 2.0000
v  -1.2000 1.2000 -1.5000
v  1.2000 1.2000 -1.5000
v  1.2000 1.2000 2.0000
v  -1.2000 2.6000 -1.5000
v  -1.2000 2.6000 2.0000
v  1.2000 2.6000 2.0000
v  1.2000 2.6000 -1.5000
v  -1.2000 2.0000 -1.6500
v  -1.2000 2.5500 -1.6500
v  1.2000 2.5500 -1.6500
v  1.2000 2.0000 -1.6500
v  1.2000 2.0000 -1.4500
v  1.2000 2.5500 -1.4500
v  -1.2000 2.5500 -1.4500
v  -1.2000 2.0000 -1.4500
v  -1.2000 2.0000 -1.4500
v  -1.2000 2.5500 -1.4500
v  -1.2000 2.5500 -1.6500
v  -1.2000 2.0000 -1.6500
v  1.2000 2.0000 -1.6500
v  1.2000 2.5500 -1.6500
v  1.2000 2.5500 -1.4500
v  1.2000 2.0000 -1.4500
v  -1.2000 2.0000 -1.4500
v  -1.2000 2.0000 -1.6500
v  1.2000 2.0000 -1.6500
v  1.2000 2.0000 -1.4500
v  -1.2000 2.5500 -1.6500
v  -1.2000 2.5500 -1.4500
v  1.2000 2.5500 -1.4500
v  1.2000 2.5500 -1.6500
v  0.0700 2.6000 -0.5000
v  0.0700 6.4000 -0.5000
v  0.0350 6.4000 -0.4394
v  0.0350 2.6000 -0.4394
v  0.0700 2.6000 -0.5000
v  0.0350 2.6000 -0.4394
v  0.0000 2.6000 -0.5000
v  0.0700 6.4000 -0.5000
v  0.0000 6.4000 -0.5000
v  0.0350 6.4000 -0.4394
v  0.0350 2.6000 -0.4394
v  0.0350 6.4000 -0.4394
v  -0.0350 6.4000 -0.4394
v  -0.0350 2.6000 -0.4394
v  0.0350 2.6000 -0.4394
v  -0.0350 2.6000 -0.4394
v  0.0000 2.6000 -0.5000
v  0.0350 6.4000 -0.4394
v  0.0000 6.4000 -0.5000
v  -0.0350 6.4000 -0.4394
v  -0.0350 2.6000 -0.4394
v  -0.0350 6.4000 -0.4394
v  -0.0700 6.4000 -0.5000
v  -0.0700 2.6000 -0.5000
v  -0.0350 2.6000 -0.4394
v  -0.0700 2.6000 -0.5000
v  0.0000 2.6000 -0.5000
v  -0.0350 6.4000 -0.4394
v  0.0000 6.4000 -0.5000
v  -0.0700 6.4000 -0.5000
v  -0.0700 2.6000 -0.5000
v  -0.0700 6.4000 -0.5000
v  -0.0350 6.4000 -0.5606
v  -0.0350 2.6000 -0.5606
v  -0.0700 2.6000 -0.5000
v  -0.0350 2.6000 -0.5606
v  0.0000 2.6000 -0.5000
v  -0.0700 6.4000 -0.5000
v  0.0000 6.4000 -0.5000
v  -0.0350 6.4000 -0.5606
v  -0.0350 2.6000 -0.5606
v  -0.0350 6.4000 -0.5606
v  0.0350 6.4000 -0.5606
v  0.0350 2.6000 -0.5606
v  -0.0350 2.6000 -0.5606
v  0.0350 2.6000 -0.5606
v  0.0000 2.6000 -0.5000
v  -0.0350 6.4000 -0.5606
v  0.0000 6.4000 -0.5000
v  0.0350 6.4000 -0.5606
v  0.0350 2.6000 -0.5606
v  0.0350 6.4000 -0.5606
v  0.0700 6.4000 -0.5000
v  0.0700 2.6000 -0.5000
v  0.0350 2.6000 -0.5606
v  0.0700 2.6000 -0.5000
v  0.0000 2.6000 -0.5000
v  0.0350 6.4000 -0.5606
v  0.0000 6.4000 -0.5000
v  0.0700 6.4000 -0.5000

vt 0.0000 0.0000
vt 0.0000 1.0000
vt 1.0000 1.0000
vt 1.0000 0.0000
vt 0.0000 0.0000
vt 0.0000 1.0000
vt 1.0000 1.0000
vt 1.0000 0.0000
vt 0.0000 0.0000
vt 0.0000 1.0000
vt 1.0000 1.0000
vt 1.0000 0.0000
vt 0.0000 0.0000
vt 0.0000 1.0000
vt 1.0000 1.0000
vt 1.0000 0.0000
vt 0.0000 0.0000
vt 0.0000 1.0000
vt 1.0000 1.0000
vt 1.0000 0.0000
vt 0.0000 0.0000
vt 0.0000 1.0000
vt 1.0000 1.0000
vt 1.0000 0.0000
vt 0.0000 0.0000
vt 0.0000 1.0000
vt 1.0000 1.0000
vt 1.0000 0.0000
vt 0.0000 0.0000
vt 0.0000 1.0000
vt 1.0000 1.0000
vt 1.0000 0.0000
vt 0.0000 0.0000
vt 0.0000 1.0000
vt 1.0000 1.0000
vt 1.0000 0.0000
vt 0.0000 0.0000
vt 0.0000 1.0000
vt 1.0000 1.0000
vt 1.0000 0.0000
vt 0.0000 0.0000
vt 0.0000 1.0000
vt 1.0000 1.0000
vt 1.0000 0.0000
vt 0.0000 0.0000
vt 0.0000 1.0000
vt 1.0000 1.0000
vt 1.0000 0.0000
vt 0.0000 0.0000
vt 0.0000 1.0000
vt 1.0000 1.0000
vt 1.0000 0.0000
vt 0.0000 0.0000
vt 0.0000 1.0000
vt 1.0000 1.0000
vt 1.0000 0.0000
vt 0.0000 0.0000
vt 0.0000 1.0000
vt 1.0000 1.0000
vt 1.0000 0.0000
vt 0.0000 0.0000
vt 0.0000 1.0000
vt 1.0000 1.0000
vt 1.0000 0.0000
vt 0.0000 0.0000
vt 0.0000 1.0000
vt 1.0000 1.0000
vt 1.0000 0.0000
vt 0.0000 0.0000
vt 0.0000 1.0000
vt 1.0000 1.0000
vt 1.0000 0.0000
vt 0.0000 0.0000
vt 0.0000 1.0000
vt 1.0000 1.0000
vt 1.0000 0.0000
vt 0.0000 0.0000
vt 0.0000 1.0000
vt 1.0000 1.0000
vt 1.0000 0.0000
vt 0.0000 0.0000
vt 0.0000 1.0000
vt 1.0000 1.0000
vt 1.0000 0.0000
vt 0.0000 0.0000
vt 0.0000 1.0000
vt 1.0000 1.0000
vt 1.0000 0.0000
vt 0.0000 0.0000
vt 0.0000 1.0000
vt 1.0000 1.0000
vt 1.0000 0.0000
vt 0.0000 0.0000
vt 0.0000 1.0000
vt 1.0000 1.0000
vt 1.0000 0.0000
vt 0.0000 0.0000
vt 0.0000 1.0000
vt 1.0000 1.0000
vt 1.0000 0.0000
vt 0.0000 0.0000
vt 0.0000 1.0000
vt 1.0000 1.0000
vt 1.0000 0.0000
vt 0.0000 0.0000
vt 0.0000 1.0000
vt 1.0000 1.0000
vt 1.0000 0.0000
vt 0.0000 0.0000
vt 0.0000 1.0000
vt 1.0000 1.0000
vt 1.0000 0.0000
vt 0.0000 0.0000
vt 0.0000 1.0000
vt 1.0000 1.0000
vt 1.0000 0.0000
vt 0.0000 0.0000
vt 0.0000 1.0000
vt 1.0000 1.0000
vt 1.0000 0.0000
vt 0.0000 0.0000
vt 0.0000 1.0000
vt 1.0000 1.0000
vt 1.0000 0.0000
vt 0.0000 0.0000
vt 0.0000 1.0000
vt 1.0000 1.0000
vt 1.0000 0.0000
vt 0.0000 0.0000
vt 0.0000 1.0000
vt 1.0000 1.0000
vt 1.0000 0.0000
vt 0.0000 0.0000
vt 0.0000 1.0000
vt 1.0000 1.0000
vt 1.0000 0.0000
vt 0.0000 0.0000
vt 0.0000 1.0000
vt 1.0000 1.0000
vt 1.0000 0.0000
vt 0.0000 0.0000
vt 0.0000 1.0000
vt 1.0000 1.0000
vt 1.0000 0.0000
vt 0.0000 0.0000
vt 0.0000 1.0000
vt 1.0000 1.0000
vt 1.0000 0.0000
vt 0.0000 0.0000
vt 0.0000 1.0000
vt 1.0000 1.0000
vt 1.0000 0.0000
vt 0.0000 0.0000
vt 0.0000 1.0000
vt 1.0000 1.0000
vt 1.0000 0.0000
vt 0.0000 0.0000
vt 0.0000 1.0000
vt 1.0000 1.0000
vt 1.0000 0.0000
vt 0.0000 0.0000
vt 0.0000 1.0000
vt 1.0000 1.0000
vt 1.0000 0.0000
vt 0.0000 0.0000
vt 0.0000 1.0000
vt 1.0000 1.0000
vt 1.0000 0.0000
vt 0.0000 0.0000
vt 0.0000 1.0000
vt 0.1667 1.0000
vt 0.1667 0.0000
vt 1.0000 0.5000
vt 0.7500 0.9330
vt 0.5000 0.5000
vt 1.0000 0.5000
vt 0.5000 0.5000
vt 0.7500 0.9330
vt 0.1667 0.0000
vt 0.1667 1.0000
vt 0.3333 1.0000
vt 0.3333 0.0000
vt 0.7500 0.9330
vt 0.2500 0.9330
vt 0.5000 0.5000
vt 0.7500 0.9330
vt 0.5000 0.5000
vt 0.2500 0.9330
vt 0.3333 0.0000
vt 0.3333 1.0000
vt 0.5000 1.0000
vt 0.5000 0.0000
vt 0.2500 0.9330
vt 0.0000 0.5000
vt 0.5000 0.5000
vt 0.2500 0.9330
vt 0.5000 0.5000
vt 0.0000 0.5000
vt 0.5000 0.0000
vt 0.5000 1.0000
vt 0.6667 1.0000
vt 0.6667 0.0000
vt 0.0000 0.5000
vt 0.2500 0.0670
vt 0.5000 0.5000
vt 0.0000 0.5000
vt 0.5000 0.5000
vt 0.2500 0.0670
vt 0.6667 0.0000
vt 0.6667 1.0000
vt 0.8333 1.0000
vt 0.8333 0.0000
vt 0.2500 0.0670
vt 0.7500 0.0670
vt 0.5000 0.5000
vt 0.2500 0.0670
vt 0.5000 0.5000
vt 0.7500 0.0670
vt 0.8333 0.0000
vt 0.8333 1.0000
vt 1.0000 1.0000
vt 1.0000 0.0000
vt 0.7500 0.0670
vt 1.0000 0.5000
vt 0.5000 0.5000
vt 0.7500 0.0670
vt 0.5000 0.5000
vt 1.0000 0.5000

vn 0.0000 0.0000 -1.0000
vn 0.0000 0.0000 1.0000
vn -1.0000 0.0000 0.0000
vn 1.0000 0.0000 0.0000
vn 0.0000 -1.0000 0.0000
vn 0.0000 1.0000 0.0000
vn 0.0000 0.0000 -1.0000
vn 0.0000 0.0000 1.0000
vn -1.0000 0.0000 0.0000
vn 1.0000 0.0000 0.0000
vn 0.0000 -1.0000 0.0000
vn 0.0000 1.0000 0.0000
vn 0.0000 0.0000 -1.0000
vn 0.0000 0.0000 1.0000
vn -1.0000 0.0000 0.0000
vn 1.0000 0.0000 0.0000
vn 0.0000 -1.0000 0.0000
vn 0.0000 1.0000 0.0000
vn 0.0000 0.0000 -1.0000
vn 0.0000 0.0000 1.0000
vn -1.0000 0.0000 0.0000
vn 1.0000 0.0000 0.0000
vn 0.0000 -1.0000 0.0000
vn 0.0000 1.0000 0.0000
vn 0.0000 0.0000 -1.0000
vn 0.0000 0.0000 1.0000
vn -1.0000 0.0000 0.0000
vn 1.0000 0.0000 0.0000
vn 0.0000 -1.0000 0.0000
vn 0.0000 1.0000 0.0000
vn 0.0000 0.0000 -1.0000
vn 0.0000 0.0000 1.0000
vn -1.0000 0.0000 0.0000
vn 1.0000 0.0000 0.0000
vn 0.0000 -1.0000 0.0000
vn 0.0000 1.0000 0.0000
vn 0.0000 0.0000 -1.0000
vn 0.0000 0.0000 1.0000
vn -1.0000 0.0000 0.0000
vn 1.0000 0.0000 0.0000
vn 0.0000 -1.0000 0.0000
vn 0.0000 1.0000 0.0000
vn 0.8660 0.0000 0.5000
vn 0.0000 -1.0000 0.0000
vn 0.0000 1.0000 0.0000
vn 0.0000 0.0000 1.0000
vn 0.0000 -1.0000 0.0000
vn 0.0000 1.0000 0.0000
vn -0.8660 0.0000 0.5000
vn 0.0000 -1.0000 0.0000
vn 0.0000 1.0000 0.0000
vn -0.8660 0.0000 -0.5000
vn 0.0000 -1.0000 0.0000
vn 0.0000 1.0000 0.0000
vn -0.0000 0.0000 -1.0000
vn 0.0000 -1.0000 0.0000
vn 0.0000 1.0000 0.0000
vn -0.8660 0.0000 0.5000
vn 0.0000 -1.0000 0.0000
vn 0.0000 1.0000 0.0000

usemtl hull
f 1/1/1 2/2/1 3/3/1
f 1/1/1 3/3/1 4/4/1
f 5/5/2 6/6/2 7/7/2
f 5/5/2 7/7/2 8/8/2
f 9/9/3 10/10/3 11/11/3
f 9/9/3 11/11/3 12/12/3
f 13/13/4 14/14/4 15/15/4
f 13/13/4 15/15/4 16/16/4
f 17/17/5 18/18/5 19/19/5
f 17/17/5 19/19/5 20/20/5
f 21/21/6 22/22/6 23/23/6
f 21/21/6 23/23/6 24/24/6
f 25/25/7 26/26/7 27/27/7
f 25/25/7 27/27/7 28/28/7
f 29/29/8 30/30/8 31/31/8
f 29/29/8 31/31/8 32/32/8
f 33/33/9 34/34/9 35/35/9
f 33/33/9 35/35/9 36/36/9
f 37/37/10 38/38/10 39/39/10
f 37/37/10 39/39/10 40/40/10
f 41/41/11 42/42/11 43/43/11
f 41/41/11 43/43/11 44/44/11
f 45/45/12 46/46/12 47/47/12
f 45/45/12 47/47/12 48/48/12
f 49/49/13 50/50/13 51/51/13
f 49/49/13 51/51/13 52/52/13
f 53/53/14 54/54/14 55/55/14
f 53/53/14 55/55/14 56/56/14
f 57/57/15 58/58/15 59/59/15
f 57/57/15 59/59/15 60/60/15
f 61/61/16 62/62/16 63/63/16
f 61/61/16 63/63/16 64/64/16
f 65/65/17 66/66/17 67/67/17
f 65/65/17 67/67/17 68/68/17
f 69/69/18 70/70/18 71/71/18
f 69/69/18 71/71/18 72/72/18
f 73/73/19 74/74/19 75/75/19
f 73/73/19 75/75/19 76/76/19
f 77/77/20 78/78/20 79/79/20
f 77/77/20 79/79/20 80/80/20
f 81/81/21 82/82/21 83/83/21
f 81/81/21 83/83/21 84/84/21
f 85/85/22 86/86/22 87/87/22
f 85/85/22 87/87/22 88/88/22
f 89/89/23 90/90/23 91/91/23
f 89/89/23 91/91/23 92/92/23
f 93/93/24 94/94/24 95/95/24
f 93/93/24 95/95/24 96/96/24
f 97/97/25 98/98/25 99/99/25
f 97/97/25 99/99/25 100/100/25
f 101/101/26 102/102/26 103/103/26
f 101/101/26 103/103/26 104/104/26
f 105/105/27 106/106/27 107/107/27
f 105/105/27 107/107/27 108/108/27
f 109/109/28 110/110/28 111/111/28
f 109/109/28 111/111/28 112/112/28
f 113/113/29 114/114/29 115/115/29
f 113/113/29 115/115/29 116/116/29
f 117/117/30 118/118/30 119/119/30
f 117/117/30 119/119/30 120/120/30
usemtl cabin
f 121/121/31 122/122/31 123/123/31
f 121/121/31 123/123/31 124/124/31
f 125/125/32 126/126/32 127/127/32
f 125/125/32 127/127/32 128/128/32
f 129/129/33 130/130/33 131/131/33
f 129/129/33 131/131/33 132/132/33
f 133/133/34 134/134/34 135/135/34
f 133/133/34 135/135/34 136/136/34
usemtl hull
f 137/137/35 138/138/35 139/139/35
f 137/137/35 139/139/35 140/140/35
usemtl cabin_roof
f 141/141/36 142/142/36 143/143/36
f 141/141/36 143/143/36 144/144/36
usemtl cabin
f 145/145/37 146/146/37 147/147/37
f 145/145/37 147/147/37 148/148/37
f 149/149/38 150/150/38 151/151/38
f 149/149/38 151/151/38 152/152/38
f 153/153/39 154/154/39 155/155/39
f 153/153/39 155/155/39 156/156/39
f 157/157/40 158/158/40 159/159/40
f 157/157/40 159/159/40 160/160/40
f 161/161/41 162/162/41 163/163/41
f 161/161/41 163/163/41 164/164/41
f 165/165/42 166/166/42 167/167/42
f 165/165/42 167/167/42 168/168/42
usemtl mast
f 169/169/43 170/170/43 171/171/43
f 169/169/43 171/171/43 172/172/43
f 173/173/44 174/174/44 175/175/44
f 176/176/45 177/177/45 178/178/45
f 179/179/46 180/180/46 181/181/46
f 179/179/46 181/181/46 182/182/46
f 183/183/47 184/184/47 185/185/47
f 186/186/48 187/187/48 188/188/48
f 189/189/49 190/190/49 191/191/49
f 189/189/49 191/191/49 192/192/49
f 193/193/50 194/194/50 195/195/50
f 196/196/51 197/197/51 198/198/51
f 199/199/52 200/200/52 201/201/52
f 199/199/52 201/201/52 202/202/52
f 203/203/53 204/204/53 205/205/53
f 206/206/54 207/207/54 208/208/54
f 209/209/55 210/210/55 211/211/55
f 209/209/55 211/211/55 212/212/55
f 213/213/56 214/214/56 215/215/56
f 216/216/57 217/217/57 218/218/57
f 219/219/58 220/220/58 221/221/58
f 219/219/58 221/221/58 222/222/58
f 223/223/59 224/224/59 225/225/59
f 226/226/60 227/227/60 228/228/60
