# Auto-generated – ocean simulation city asset
mtllib dock.mtl

v  -7.5000 0.0000 -2.0000
v  -7.5000 0.1500 -2.0000
v  7.5000 0.1500 -2.0000
v  7.5000 0.0000 -2.0000
v  7.5000 0.0000 18.0000
v  7.5000 0.1500 18.0000
v  -7.5000 0.1500 18.0000
v  -7.5000 0.0000 18.0000
v  -7.5000 0.0000 18.0000
v  -7.5000 0.1500 18.0000
v  -7.5000 0.1500 -2.0000
v  -7.5000 0.0000 -2.0000
v  7.5000 0.0000 -2.0000
v  7.5000 0.1500 -2.0000
v  7.5000 0.1500 18.0000
v  7.5000 0.0000 18.0000
v  -7.5000 0.0000 18.0000
v  -7.5000 0.0000 -2.0000
v  7.5000 0.0000 -2.0000
v  7.5000 0.0000 18.0000
v  -7.5000 0.1500 -2.0000
v  -7.5000 0.1500 18.0000
v  7.5000 0.1500 18.0000
v  7.5000 0.1500 -2.0000
v  -7.5000 0.1500 -2.0000
v  -7.5000 1.0000 -2.0000
v  -7.2000 1.0000 -2.0000
v  -7.2000 0.1500 -2.0000
v  -7.2000 0.1500 18.0000
v  -7.2000 1.0000 18.0000
v  -7.5000 1.0000 18.0000
v  -7.5000 0.1500 18.0000
v  -7.5000 0.1500 18.0000
v  -7.5000 1.0000 18.0000
v  -7.5000 1.0000 -2.0000
v  -7.5000 0.1500 -2.0000
v  -7.2000 0.1500 -2.0000
v  -7.2000 1.0000 -2.0000
v  -7.2000 1.0000 18.0000
v  -7.2000 0.1500 18.0000
v  -7.5000 0.1500 18.0000
v  -7.5000 0.1500 -2.0000
v  -7.2000 0.1500 -2.0000
v  -7.2000 0.1500 18.0000
v  -7.5000 1.0000 -2.0000
v  -7.5000 1.0000 18.0000
v  -7.2000 1.0000 18.0000
v  -7.2000 1.0000 -2.0000
v  7.2000 0.1500 -2.0000
v  7.2000 1.0000 -2.0000
v  7.5000 1.0000 -2.0000
v  7.5000 0.1500 -2.0000
v  7.5000 0.1500 18.0000
v  7.5000 1.0000 18.0000
v  7.2000 1.0000 18.0000
v  7.2000 0.1500 18.0000
v  7.2000 0.1500 18.0000
v  7.2000 1.0000 18.0000
v  7.2000 1.0000 -2.0000
v  7.2000 0.1500 -2.0000
v  7.5000 0.1500 -2.0000
v  7.5000 1.0000 -2.0000
v  7.5000 1.0000 18.0000
v  7.5000 0.1500 18.0000
v  7.2000 0.1500 18.0000
v  7.2000 0.1500 -2.0000
v  7.5000 0.1500 -2.0000
v  7.5000 0.1500 18.0000
v  7.2000 1.0000 -2.0000
v  7.2000 1.0000 18.0000
v  7.5000 1.0000 18.0000
v  7.5000 1.0000 -2.0000
v  -5.7500 -3.0000 0.0000
v  -5.7500 0.2000 0.0000
v  -5.8750 0.2000 0.2165
v  -5.8750 -3.0000 0.2165
v  -5.7500 -3.0000 0.0000
v  -5.8750 -3.0000 0.2165
v  -6.0000 -3.0000 0.0000
v  -5.7500 0.2000 0.0000
v  -6.0000 0.2000 0.0000
v  -5.8750 0.2000 0.2165
v  -5.8750 -3.0000 0.2165
v  -5.8750 0.2000 0.2165
v  -6.1250 0.2000 0.2165
v  -6.1250 -3.0000 0.2165
v  -5.8750 -3.0000 0.2165
v  -6.1250 -3.0000 0.2165
v  -6.0000 -3.0000 0.0000
v  -5.8750 0.2000 0.2165
v  -6.0000 0.2000 0.0000
v  -6.1250 0.2000 0.2165
v  -6.1250 -3.0000 0.2165
v  -6.1250 0.2000 0.2165
v  -6.2500 0.2000 0.0000
v  -6.2500 -3.0000 0.0000
v  -6.1250 -3.0000 0.2165
v  -6.2500 -3.0000 0.0000
v  -6.0000 -3.0000 0.0000
v  -6.1250 0.2000 0.2165
v  -6.0000 0.2000 0.0000
v  -6.2500 0.2000 0.0000
v  -6.2500 -3.0000 0.0000
v  -6.2500 0.2000 0.0000
v  -6.1250 0.2000 -0.2165
v  -6.1250 -3.0000 -0.2165
v  -6.2500 -3.0000 0.0000
v  -6.1250 -3.0000 -0.2165
v  -6.0000 -3.0000 0.0000
v  -6.2500 0.2000 0.0000
v  -6.0000 0.2000 0.0000
v  -6.1250 0.2000 -0.2165
v  -6.1250 -3.0000 -0.2165
v  -6.1250 0.2000 -0.2165
v  -5.8750 0.2000 -0.2165
v  -5.8750 -3.0000 -0.2165
v  -6.1250 -3.0000 -0.2165
v  -5.8750 -3.0000 -0.2165
v  -6.0000 -3.0000 0.0000
v  -6.1250 0.2000 -0.2165
v  -6.0000 0.2000 0.0000
v  -5.8750 0.2000 -0.2165
v  -5.8750 -3.0000 -0.2165
v  -5.8750 0.2000 -0.2165
v  -5.7500 0.2000 0.0000
v  -5.7500 -3.0000 0.0000
v  -5.8750 -3.0000 -0.2165
v  -5.7500 -3.0000 0.0000
v  -6.0000 -3.0000 0.0000
v  -5.8750 0.2000 -0.2165
v  -6.0000 0.2000 0.0000
v  -5.7500 0.2000 0.0000
v  0.2500 -3.0000 0.0000
v  0.2500 0.2000 0.0000
v  0.1250 0.2000 0.2165
v  0.1250 -3.0000 0.2165
v  0.2500 -3.0000 0.0000
v  0.1250 -3.0000 0.2165
v  0.0000 -3.0000 0.0000
v  0.2500 0.2000 0.0000
v  0.0000 0.2000 0.0000
v  0.1250 0.2000 0.2165
v  0.1250 -3.0000 0.2165
v  0.1250 0.2000 0.2165
v  -0.1250 0.2000 0.2165
v  -0.1250 -3.0000 0.2165
v  0.1250 -3.0000 0.2165
v  -0.1250 -3.0000 0.2165
v  0.0000 -3.0000 0.0000
v  0.1250 0.2000 0.2165
v  0.0000 0.2000 0.0000
v  -0.1250 0.2000 0.2165
v  -0.1250 -3.0000 0.2165
v  -0.1250 0.2000 0.2165
v  -0.2500 0.2000 0.0000
v  -0.2500 -3.0000 0.0000
v  -0.1250 -3.0000 0.2165
v  -0.2500 -3.0000 0.0000
v  0.0000 -3.0000 0.0000
v  -0.1250 0.2000 0.2165
v  0.0000 0.2000 0.0000
v  -0.2500 0.2000 0.0000
v  -0.2500 -3.0000 0.0000
v  -0.2500 0.2000 0.0000
v  -0.1250 0.2000 -0.2165
v  -0.1250 -3.0000 -0.2165
v  -0.2500 -3.0000 0.0000
v  -0.1250 -3.0000 -0.2165
v  0.0000 -3.0000 0.0000
v  -0.2500 0.2000 0.0000
v  0.0000 0.2000 0.0000
v  -0.1250 0.2000 -0.2165
v  -0.1250 -3.0000 -0.2165
v  -0.1250 0.2000 -0.2165
v  0.1250 0.2000 -0.2165
v  0.1250 -3.0000 -0.2165
v  -0.1250 -3.0000 -0.2165
v  0.1250 -3.0000 -0.2165
v  0.0000 -3.0000 0.0000
v  -0.1250 0.2000 -0.2165
v  0.0000 0.2000 0.0000
v  0.1250 0.2000 -0.2165
v  0.1250 -3.0000 -0.2165
v  0.1250 0.2000 -0.2165
v  0.2500 0.2000 0.0000
v  0.2500 -3.0000 0.0000
v  0.1250 -3.0000 -0.2165
v  0.2500 -3.0000 0.0000
v  0.0000 -3.0000 0.0000
v  0.1250 0.2000 -0.2165
v  0.0000 0.2000 0.0000
v  0.2500 0.2000 0.0000
v  6.2500 -3.0000 0.0000
v  6.2500 0.2000 0.0000
v  6.1250 0.2000 0.2165
v  6.1250 -3.0000 0.2165
v  6.2500 -3.0000 0.0000
v  6.1250 -3.0000 0.2165
v  6.0000 -3.0000 0.0000
v  6.2500 0.2000 0.0000
v  6.0000 0.2000 0.0000
v  6.1250 0.2000 0.2165
v  6.1250 -3.0000 0.2165
v  6.1250 0.2000 0.2165
v  5.8750 0.2000 0.2165
v  5.8750 -3.0000 0.2165
v  6.1250 -3.0000 0.2165
v  5.8750 -3.0000 0.2165
v  6.0000 -3.0000 0.0000
v  6.1250 0.2000 0.2165
v  6.0000 0.2000 0.0000
v  5.8750 0.2000 0.2165
v  5.8750 -3.0000 0.2165
v  5.8750 0.2000 0.2165
v  5.7500 0.2000 0.0000
v  5.7500 -3.0000 0.0000
v  5.8750 -3.0000 0.2165
v  5.7500 -3.0000 0.0000
v  6.0000 -3.0000 0.0000
v  5.8750 0.2000 0.2165
v  6.0000 0.2000 0.0000
v  5.7500 0.2000 0.0000
v  5.7500 -3.0000 0.0000
v  5.7500 0.2000 0.0000
v  5.8750 0.2000 -0.2165
v  5.8750 -3.0000 -0.2165
v  5.7500 -3.0000 0.0000
v  5.8750 -3.0000 -0.2165
v  6.0000 -3.0000 0.0000
v  5.7500 0.2000 0.0000
v  6.0000 0.2000 0.0000
v  5.8750 0.2000 -0.2165
v  5.8750 -3.0000 -0.2165
v  5.8750 0.2000 -0.2165
v  6.1250 0.2000 -0.2165
v  6.1250 -3.0000 -0.2165
v  5.8750 -3.0000 -0.2165
v  6.1250 -3.0000 -0.2165
v  6.0000 -3.0000 0.0000
v  5.8750 0.2000 -0.2165
v  6.0000 0.2000 0.0000
v  6.1250 0.2000 -0.2165
v  6.1250 -3.0000 -0.2165
v  6.1250 0.2000 -0.2165
v  6.2500 0.2000 0.0000
v  6.2500 -3.0000 0.0000
v  6.1250 -3.0000 -0.2165
v  6.2500 -3.0000 0.0000
v  6.0000 -3.0000 0.0000
v  6.1250 0.2000 -0.2165
v  6.0000 0.2000 0.0000
v  6.2500 0.2000 0.0000
v  -5.7500 -3.0000 4.0000
v  -5.7500 0.2000 4.0000
v  -5.8750 0.2000 4.2165
v  -5.8750 -3.0000 4.2165
v  -5.7500 -3.0000 4.0000
v  -5.8750 -3.0000 4.2165
v  -6.0000 -3.0000 4.0000
v  -5.7500 0.2000 4.0000
v  -6.0000 0.2000 4.0000
v  -5.8750 0.2000 4.2165
v  -5.8750 -3.0000 4.2165
v  -5.8750 0.2000 4.2165
v  -6.1250 0.2000 4.2165
v  -6.1250 -3.0000 4.2165
v  -5.8750 -3.0000 4.2165
v  -6.1250 -3.0000 4.2165
v  -6.0000 -3.0000 4.0000
v  -5.8750 0.2000 4.2165
v  -6.0000 0.2000 4.0000
v  -6.1250 0.2000 4.2165
v  -6.1250 -3.0000 4.2165
v  -6.1250 0.2000 4.2165
v  -6.2500 0.2000 4.0000
v  -6.2500 -3.0000 4.0000
v  -6.1250 -3.0000 4.2165
v  -6.2500 -3.0000 4.0000
v  -6.0000 -3.0000 4.0000
v  -6.1250 0.2000 4.2165
v  -6.0000 0.2000 4.0000
v  -6.2500 0.2000 4.0000
v  -6.2500 -3.0000 4.0000
v  -6.2500 0.2000 4.0000
v  -6.1250 0.2000 3.7835
v  -6.1250 -3.0000 3.7835
v  -6.2500 -3.0000 4.0000
v  -6.1250 -3.0000 3.7835
v  -6.0000 -3.0000 4.0000
v  -6.2500 0.2000 4.0000
v  -6.0000 0.2000 4.0000
v  -6.1250 0.2000 3.7835
v  -6.1250 -3.0000 3.7835
v  -6.1250 0.2000 3.7835
v  -5.8750 0.2000 3.7835
v  -5.8750 -3.0000 3.7835
v  -6.1250 -3.0000 3.7835
v  -5.8750 -3.0000 3.7835
v  -6.0000 -3.0000 4.0000
v  -6.1250 0.2000 3.7835
v  -6.0000 0.2000 4.0000
v  -5.8750 0.2000 3.7835
v  -5.8750 -3.0000 3.7835
v  -5.8750 0.2000 3.7835
v  -5.7500 0.2000 4.0000
v  -5.7500 -3.0000 4.0000
v  -5.8750 -3.0000 3.7835
v  -5.7500 -3.0000 4.0000
v  -6.0000 -3.0000 4.0000
v  -5.8750 0.2000 3.7835
v  -6.0000 0.2000 4.0000
v  -5.7500 0.2000 4.0000
v  0.2500 -3.0000 4.0000
v  0.2500 0.2000 4.0000
v  0.1250 0.2000 4.2165
v  0.1250 -3.0000 4.2165
v  0.2500 -3.0000 4.0000
v  0.1250 -3.0000 4.2165
v  0.0000 -3.0000 4.0000
v  0.2500 0.2000 4.0000
v  0.0000 0.2000 4.0000
v  0.1250 0.2000 4.2165
v  0.1250 -3.0000 4.2165
v  0.1250 0.2000 4.2165
v  -0.1250 0.2000 4.2165
v  -0.1250 -3.0000 4.2165
v  0.1250 -3.0000 4.2165
v  -0.1250 -3.0000 4.2165
v  0.0000 -3.0000 4.0000
v  0.1250 0.2000 4.2165
v  0.0000 0.2000 4.0000
v  -0.1250 0.2000 4.2165
v  -0.1250 -3.0000 4.2165
v  -0.1250 0.2000 4.2165
v  -0.2500 0.2000 4.0000
v  -0.2500 -3.0000 4.0000
v  -0.1250 -3.0000 4.2165
v  -0.2500 -3.0000 4.0000
v  0.0000 -3.0000 4.0000
v  -0.1250 0.2000 4.2165
v  0.0000 0.2000 4.0000
v  -0.2500 0.2000 4.0000
v  -0.2500 -3.0000 4.0000
v  -0.2500 0.2000 4.0000
v  -0.1250 0.2000 3.7835
v  -0.1250 -3.0000 3.7835
v  -0.2500 -3.0000 4.0000
v  -0.1250 -3.0000 3.7835
v  0.0000 -3.0000 4.0000
v  -0.2500 0.2000 4.0000
v  0.0000 0.2000 4.0000
v  -0.1250 0.2000 3.7835
v  -0.1250 -3.0000 3.7835
v  -0.1250 0.2000 3.7835
v  0.1250 0.2000 3.7835
v  0.1250 -3.0000 3.7835
v  -0.1250 -3.0000 3.7835
v  0.1250 -3.0000 3.7835
v  0.0000 -3.0000 4.0000
v  -0.1250 0.2000 3.7835
v  0.0000 0.2000 4.0000
v  0.1250 0.2000 3.7835
v  0.1250 -3.0000 3.7835
v  0.1250 0.2000 3.7835
v  0.2500 0.2000 4.0000
v  0.2500 -3.0000 4.0000
v  0.1250 -3.0000 3.7835
v  0.2500 -3.0000 4.0000
v  0.0000 -3.0000 4.0000
v  0.1250 0.2000 3.7835
v  0.0000 0.2000 4.0000
v  0.2500 0.2000 4.0000
v  6.2500 -3.0000 4.0000
v  6.2500 0.2000 4.0000
v  6.1250 0.2000 4.2165
v  6.1250 -3.0000 4.2165
v  6.2500 -3.0000 4.0000
v  6.1250 -3.0000 4.2165
v  6.0000 -3.0000 4.0000
v  6.2500 0.2000 4.0000
v  6.0000 0.2000 4.0000
v  6.1250 0.2000 4.2165
v  6.1250 -3.0000 4.2165
v  6.1250 0.2000 4.2165
v  5.8750 0.2000 4.2165
v  5.8750 -3.0000 4.2165
v  6.1250 -3.0000 4.2165
v  5.8750 -3.0000 4.2165
v  6.0000 -3.0000 4.0000
v  6.1250 0.2000 4.2165
v  6.0000 0.2000 4.0000
v  5.8750 0.2000 4.2165
v  5.8750 -3.0000 4.2165
v  5.8750 0.2000 4.2165
v  5.7500 0.2000 4.0000
v  5.7500 -3.0000 4.0000
v  5.8750 -3.0000 4.2165
v  5.7500 -3.0000 4.0000
v  6.0000 -3.0000 4.0000
v  5.8750 0.2000 4.2165
v  6.0000 0.2000 4.0000
v  5.7500 0.2000 4.0000
v  5.7500 -3.0000 4.0000
v  5.7500 0.2000 4.0000
v  5.8750 0.2000 3.7835
v  5.8750 -3.0000 3.7835
v  5.7500 -3.0000 4.0000
v  5.8750 -3.0000 3.7835
v  6.0000 -3.0000 4.0000
v  5.7500 0.2000 4.0000
v  6.0000 0.2000 4.0000
v  5.8750 0.2000 3.7835
v  5.8750 -3.0000 3.7835
v  5.8750 0.2000 3.7835
v  6.1250 0.2000 3.7835
v  6.1250 -3.0000 3.7835
v  5.8750 -3.0000 3.7835
v  6.1250 -3.0000 3.7835
v  6.0000 -3.0000 4.0000
v  5.8750 0.2000 3.7835
v  6.0000 0.2000 4.0000
v  6.1250 0.2000 3.7835
v  6.1250 -3.0000 3.7835
v  6.1250 0.2000 3.7835
v  6.2500 0.2000 4.0000
v  6.2500 -3.0000 4.0000
v  6.1250 -3.0000 3.7835
v  6.2500 -3.0000 4.0000
v  6.0000 -3.0000 4.0000
v  6.1250 0.2000 3.7835
v  6.0000 0.2000 4.0000
v  6.2500 0.2000 4.0000
v  -5.7500 -3.0000 8.0000
v  -5.7500 0.2000 8.0000
v  -5.8750 0.2000 8.2165
v  -5.8750 -3.0000 8.2165
v  -5.7500 -3.0000 8.0000
v  -5.8750 -3.0000 8.2165
v  -6.0000 -3.0000 8.0000
v  -5.7500 0.2000 8.0000
v  -6.0000 0.2000 8.0000
v  -5.8750 0.2000 8.2165
v  -5.8750 -3.0000 8.2165
v  -5.8750 0.2000 8.2165
v  -6.1250 0.2000 8.2165
v  -6.1250 -3.0000 8.2165
v  -5.8750 -3.0000 8.2165
v  -6.1250 -3.0000 8.2165
v  -6.0000 -3.0000 8.0000
v  -5.8750 0.2000 8.2165
v  -6.0000 0.2000 8.0000
v  -6.1250 0.2000 8.2165
v  -6.1250 -3.0000 8.2165
v  -6.1250 0.2000 8.2165
v  -6.2500 0.2000 8.0000
v  -6.2500 -3.0000 8.0000
v  -6.1250 -3.0000 8.2165
v  -6.2500 -3.0000 8.0000
v  -6.0000 -3.0000 8.0000
v  -6.1250 0.2000 8.2165
v  -6.0000 0.2000 8.0000
v  -6.2500 0.2000 8.0000
v  -6.2500 -3.0000 8.0000
v  -6.2500 0.2000 8.0000
v  -6.1250 0.2000 7.7835
v  -6.1250 -3.0000 7.7835
v  -6.2500 -3.0000 8.0000
v  -6.1250 -3.0000 7.7835
v  -6.0000 -3.0000 8.0000
v  -6.2500 0.2000 8.0000
v  -6.0000 0.2000 8.0000
v  -6.1250 0.2000 7.7835
v  -6.1250 -3.0000 7.7835
v  -6.1250 0.2000 7.7835
v  -5.8750 0.2000 7.7835
v  -5.8750 -3.0000 7.7835
v  -6.1250 -3.0000 7.7835
v  -5.8750 -3.0000 7.7835
v  -6.0000 -3.0000 8.0000
v  -6.1250 0.2000 7.7835
v  -6.0000 0.2000 8.0000
v  -5.8750 0.2000 7.7835
v  -5.8750 -3.0000 7.7835
v  -5.8750 0.2000 7.7835
v  -5.7500 0.2000 8.0000
v  -5.7500 -3.0000 8.0000
v  -5.8750 -3.0000 7.7835
v  -5.7500 -3.0000 8.0000
v  -6.0000 -3.0000 8.0000
v  -5.8750 0.2000 7.7835
v  -6.0000 0.2000 8.0000
v  -5.7500 0.2000 8.0000
v  0.2500 -3.0000 8.0000
v  0.2500 0.2000 8.0000
v  0.1250 0.2000 8.2165
v  0.1250 -3.0000 8.2165
v  0.2500 -3.0000 8.0000
v  0.1250 -3.0000 8.2165
v  0.0000 -3.0000 8.0000
v  0.2500 0.2000 8.0000
v  0.0000 0.2000 8.0000
v  0.1250 0.2000 8.2165
v  0.1250 -3.0000 8.2165
v  0.1250 0.2000 8.2165
v  -0.1250 0.2000 8.2165
v  -0.1250 -3.0000 8.2165
v  0.1250 -3.0000 8.2165
v  -0.1250 -3.0000 8.2165
v  0.0000 -3.0000 8.0000
v  0.1250 0.2000 8.2165
v  0.0000 0.2000 8.0000
v  -0.1250 0.2000 8.2165
v  -0.1250 -3.0000 8.2165
v  -0.1250 0.2000 8.2165
v  -0.2500 0.2000 8.0000
v  -0.2500 -3.0000 8.0000
v  -0.1250 -3.0000 8.2165
v  -0.2500 -3.0000 8.0000
v  0.0000 -3.0000 8.0000
v  -0.1250 0.2000 8.2165
v  0.0000 0.2000 8.0000
v  -0.2500 0.2000 8.0000
v  -0.2500 -3.0000 8.0000
v  -0.2500 0.2000 8.0000
v  -0.1250 0.2000 7.7835
v  -0.1250 -3.0000 7.7835
v  -0.2500 -3.0000 8.0000
v  -0.1250 -3.0000 7.7835
v  0.0000 -3.0000 8.0000
v  -0.2500 0.2000 8.0000
v  0.0000 0.2000 8.0000
v  -0.1250 0.2000 7.7835
v  -0.1250 -3.0000 7.7835
v  -0.1250 0.2000 7.7835
v  0.1250 0.2000 7.7835
v  0.1250 -3.0000 7.7835
v  -0.1250 -3.0000 7.7835
v  0.1250 -3.0000 7.7835
v  0.0000 -3.0000 8.0000
v  -0.1250 0.2000 7.7835
v  0.0000 0.2000 8.0000
v  0.1250 0.2000 7.7835
v  0.1250 -3.0000 7.7835
v  0.1250 0.2000 7.7835
v  0.2500 0.2000 8.0000
v  0.2500 -3.0000 8.0000
v  0.1250 -3.0000 7.7835
v  0.2500 -3.0000 8.0000
v  0.0000 -3.0000 8.0000
v  0.1250 0.2000 7.7835
v  0.0000 0.2000 8.0000
v  0.2500 0.2000 8.0000
v  6.2500 -3.0000 8.0000
v  6.2500 0.2000 8.0000
v  6.1250 0.2000 8.2165
v  6.1250 -3.0000 8.2165
v  6.2500 -3.0000 8.0000
v  6.1250 -3.0000 8.2165
v  6.0000 -3.0000 8.0000
v  6.2500 0.2000 8.0000
v  6.0000 0.2000 8.0000
v  6.1250 0.2000 8.2165
v  6.1250 -3.0000 8.2165
v  6.1250 0.2000 8.2165
v  5.8750 0.2000 8.2165
v  5.8750 -3.0000 8.2165
v  6.1250 -3.0000 8.2165
v  5.8750 -3.0000 8.2165
v  6.0000 -3.0000 8.0000
v  6.1250 0.2000 8.2165
v  6.0000 0.2000 8.0000
v  5.8750 0.2000 8.2165
v  5.8750 -3.0000 8.2165
v  5.8750 0.2000 8.2165
v  5.7500 0.2000 8.0000
v  5.7500 -3.0000 8.0000
v  5.8750 -3.0000 8.2165
v  5.7500 -3.0000 8.0000
v  6.0000 -3.0000 8.0000
v  5.8750 0.2000 8.2165
v  6.0000 0.2000 8.0000
v  5.7500 0.2000 8.0000
v  5.7500 -3.0000 8.0000
v  5.7500 0.2000 8.0000
v  5.8750 0.2000 7.7835
v  5.8750 -3.0000 7.7835
v  5.7500 -3.0000 8.0000
v  5.8750 -3.0000 7.7835
v  6.0000 -3.0000 8.0000
v  5.7500 0.2000 8.0000
v  6.0000 0.2000 8.0000
v  5.8750 0.2000 7.7835
v  5.8750 -3.0000 7.7835
v  5.8750 0.2000 7.7835
v  6.1250 0.2000 7.7835
v  6.1250 -3.0000 7.7835
v  5.8750 -3.0000 7.7835
v  6.1250 -3.0000 7.7835
v  6.0000 -3.0000 8.0000
v  5.8750 0.2000 7.7835
v  6.0000 0.2000 8.0000
v  6.1250 0.2000 7.7835
v  6.1250 -3.0000 7.7835
v  6.1250 0.2000 7.7835
v  6.2500 0.2000 8.0000
v  6.2500 -3.0000 8.0000
v  6.1250 -3.0000 7.7835
v  6.2500 -3.0000 8.0000
v  6.0000 -3.0000 8.0000
v  6.1250 0.2000 7.7835
v  6.0000 0.2000 8.0000
v  6.2500 0.2000 8.0000
v  -5.7500 -3.0000 12.0000
v  -5.7500 0.2000 12.0000
v  -5.8750 0.2000 12.2165
v  -5.8750 -3.0000 12.2165
v  -5.7500 -3.0000 12.0000
v  -5.8750 -3.0000 12.2165
v  -6.0000 -3.0000 12.0000
v  -5.7500 0.2000 12.0000
v  -6.0000 0.2000 12.0000
v  -5.8750 0.2000 12.2165
v  -5.8750 -3.0000 12.2165
v  -5.8750 0.2000 12.2165
v  -6.1250 0.2000 12.2165
v  -6.1250 -3.0000 12.2165
v  -5.8750 -3.0000 12.2165
v  -6.1250 -3.0000 12.2165
v  -6.0000 -3.0000 12.0000
v  -5.8750 0.2000 12.2165
v  -6.0000 0.2000 12.0000
v  -6.1250 0.2000 12.2165
v  -6.1250 -3.0000 12.2165
v  -6.1250 0.2000 12.2165
v  -6.2500 0.2000 12.0000
v  -6.2500 -3.0000 12.0000
v  -6.1250 -3.0000 12.2165
v  -6.2500 -3.0000 12.0000
v  -6.0000 -3.0000 12.0000
v  -6.1250 0.2000 12.2165
v  -6.0000 0.2000 12.0000
v  -6.2500 0.2000 12.0000
v  -6.2500 -3.0000 12.0000
v  -6.2500 0.2000 12.0000
v  -6.1250 0.2000 11.7835
v  -6.1250 -3.0000 11.7835
v  -6.2500 -3.0000 12.0000
v  -6.1250 -3.0000 11.7835
v  -6.0000 -3.0000 12.0000
v  -6.2500 0.2000 12.0000
v  -6.0000 0.2000 12.0000
v  -6.1250 0.2000 11.7835
v  -6.1250 -3.0000 11.7835
v  -6.1250 0.2000 11.7835
v  -5.8750 0.2000 11.7835
v  -5.8750 -3.0000 11.7835
v  -6.1250 -3.0000 11.7835
v  -5.8750 -3.0000 11.7835
v  -6.0000 -3.0000 12.0000
v  -6.1250 0.2000 11.7835
v  -6.0000 0.2000 12.0000
v  -5.8750 0.2000 11.7835
v  -5.8750 -3.0000 11.7835
v  -5.8750 0.2000 11.7835
v  -5.7500 0.2000 12.0000
v  -5.7500 -3.0000 12.0000
v  -5.8750 -3.0000 11.7835
v  -5.7500 -3.0000 12.0000
v  -6.0000 -3.0000 12.0000
v  -5.8750 0.2000 11.7835
v  -6.0000 0.2000 12.0000
v  -5.7500 0.2000 12.0000
v  0.2500 -3.0000 12.0000
v  0.2500 0.2000 12.0000
v  0.1250 0.2000 12.2165
v  0.1250 -3.0000 12.2165
v  0.2500 -3.0000 12.0000
v  0.1250 -3.0000 12.2165
v  0.0000 -3.0000 12.0000
v  0.2500 0.2000 12.0000
v  0.0000 0.2000 12.0000
v  0.1250 0.2000 12.2165
v  0.1250 -3.0000 12.2165
v  0.1250 0.2000 12.2165
v  -0.1250 0.2000 12.2165
v  -0.1250 -3.0000 12.2165
v  0.1250 -3.0000 12.2165
v  -0.1250 -3.0000 12.2165
v  0.0000 -3.0000 12.0000
v  0.1250 0.2000 12.2165
v  0.0000 0.2000 12.0000
v  -0.1250 0.2000 12.2165
v  -0.1250 -3.0000 12.2165
v  -0.1250 0.2000 12.2165
v  -0.2500 0.2000 12.0000
v  -0.2500 -3.0000 12.0000
v  -0.1250 -3.0000 12.2165
v  -0.2500 -3.0000 12.0000
v  0.0000 -3.0000 12.0000
v  -0.1250 0.2000 12.2165
v  0.0000 0.2000 12.0000
v  -0.2500 0.2000 12.0000
v  -0.2500 -3.0000 12.0000
v  -0.2500 0.2000 12.0000
v  -0.1250 0.2000 11.7835
v  -0.1250 -3.0000 11.7835
v  -0.2500 -3.0000 12.0000
v  -0.1250 -3.0000 11.7835
v  0.0000 -3.0000 12.0000
v  -0.2500 0.2000 12.0000
v  0.0000 0.2000 12.0000
v  -0.1250 0.2000 11.7835
v  -0.1250 -3.0000 11.7835
v  -0.1250 0.2000 11.7835
v  0.1250 0.2000 11.7835
v  0.1250 -3.0000 11.7835
v  -0.1250 -3.0000 11.7835
v  0.1250 -3.0000 11.7835
v  0.0000 -3.0000 12.0000
v  -0.1250 0.2000 11.7835
v  0.0000 0.2000 12.0000
v  0.1250 0.2000 11.7835
v  0.1250 -3.0000 11.7835
v  0.1250 0.2000 11.7835
v  0.2500 0.2000 12.0000
v  0.2500 -3.0000 12.0000
v  0.1250 -3.0000 11.7835
v  0.2500 -3.0000 12.0000
v  0.0000 -3.0000 12.0000
v  0.1250 0.2000 11.7835
v  0.0000 0.2000 12.0000
v  0.2500 0.2000 12.0000
v  6.2500 -3.0000 12.0000
v  6.2500 0.2000 12.0000
v  6.1250 0.2000 12.2165
v  6.1250 -3.0000 12.2165
v  6.2500 -3.0000 12.0000
v  6.1250 -3.0000 12.2165
v  6.0000 -3.0000 12.0000
v  6.2500 0.2000 12.0000
v  6.0000 0.2000 12.0000
v  6.1250 0.2000 12.2165
v  6.1250 -3.0000 12.2165
v  6.1250 0.2000 12.2165
v  5.8750 0.2000 12.2165
v  5.8750 -3.0000 12.2165
v  6.1250 -3.0000 12.2165
v  5.8750 -3.0000 12.2165
v  6.0000 -3.0000 12.0000
v  6.1250 0.2000 12.2165
v  6.0000 0.2000 12.0000
v  5.8750 0.2000 12.2165
v  5.8750 -3.0000 12.2165
v  5.8750 0.2000 12.2165
v  5.7500 0.2000 12.0000
v  5.7500 -3.0000 12.0000
v  5.8750 -3.0000 12.2165
v  5.7500 -3.0000 12.0000
v  6.0000 -3.0000 12.0000
v  5.8750 0.2000 12.2165
v  6.0000 0.2000 12.0000
v  5.7500 0.2000 12.0000
v  5.7500 -3.0000 12.0000
v  5.7500 0.2000 12.0000
v  5.8750 0.2000 11.7835
v  5.8750 -3.0000 11.7835
v  5.7500 -3.0000 12.0000
v  5.8750 -3.0000 11.7835
v  6.0000 -3.0000 12.0000
v  5.7500 0.2000 12.0000
v  6.0000 0.2000 12.0000
v  5.8750 0.2000 11.7835
v  5.8750 -3.0000 11.7835
v  5.8750 0.2000 11.7835
v  6.1250 0.2000 11.7835
v  6.1250 -3.0000 11.7835
v  5.8750 -3.0000 11.7835
v  6.1250 -3.0000 11.7835
v  6.0000 -3.0000 12.0000
v  5.8750 0.2000 11.7835
v  6.0000 0.2000 12.0000
v  6.1250 0.2000 11.7835
v  6.1250 -3.0000 11.7835
v  6.1250 0.2000 11.7835
v  6.2500 0.2000 12.0000
v  6.2500 -3.0000 12.0000
v  6.1250 -3.0000 11.7835
v  6.2500 -3.0000 12.0000
v  6.0000 -3.0000 12.0000
v  6.1250 0.2000 11.7835
v  6.0000 0.2000 12.0000
v  6.2500 0.2000 12.0000
v  -5.7500 -3.0000 16.0000
v  -5.7500 0.2000 16.0000
v  -5.8750 0.2000 16.2165
v  -5.8750 -3.0000 16.2165
v  -5.7500 -3.0000 16.0000
v  -5.8750 -3.0000 16.2165
v  -6.0000 -3.0000 16.0000
v  -5.7500 0.2000 16.0000
v  -6.0000 0.2000 16.0000
v  -5.8750 0.2000 16.2165
v  -5.8750 -3.0000 16.2165
v  -5.8750 0.2000 16.2165
v  -6.1250 0.2000 16.2165
v  -6.1250 -3.0000 16.2165
v  -5.8750 -3.0000 16.2165
v  -6.1250 -3.0000 16.2165
v  -6.0000 -3.0000 16.0000
v  -5.8750 0.2000 16.2165
v  -6.0000 0.2000 16.0000
v  -6.1250 0.2000 16.2165
v  -6.1250 -3.0000 16.2165
v  -6.1250 0.2000 16.2165
v  -6.2500 0.2000 16.0000
v  -6.2500 -3.0000 16.0000
v  -6.1250 -3.0000 16.2165
v  -6.2500 -3.0000 16.0000
v  -6.0000 -3.0000 16.0000
v  -6.1250 0.2000 16.2165
v  -6.0000 0.2000 16.0000
v  -6.2500 0.2000 16.0000
v  -6.2500 -3.0000 16.0000
v  -6.2500 0.2000 16.0000
v  -6.1250 0.2000 15.7835
v  -6.1250 -3.0000 15.7835
v  -6.2500 -3.0000 16.0000
v  -6.1250 -3.0000 15.7835
v  -6.0000 -3.0000 16.0000
v  -6.2500 0.2000 16.0000
v  -6.0000 0.2000 16.0000
v  -6.1250 0.2000 15.7835
v  -6.1250 -3.0000 15.7835
v  -6.1250 0.2000 15.7835
v  -5.8750 0.2000 15.7835
v  -5.8750 -3.0000 15.7835
v  -6.1250 -3.0000 15.7835
v  -5.8750 -3.0000 15.7835
v  -6.0000 -3.0000 16.0000
v  -6.1250 0.2000 15.7835
v  -6.0000 0.2000 16.0000
v  -5.8750 0.2000 15.7835
v  -5.8750 -3.0000 15.7835
v  -5.8750 0.2000 15.7835
v  -5.7500 0.2000 16.0000
v  -5.7500 -3.0000 16.0000
v  -5.8750 -3.0000 15.7835
v  -5.7500 -3.0000 16.0000
v  -6.0000 -3.0000 16.0000
v  -5.8750 0.2000 15.7835
v  -6.0000 0.2000 16.0000
v  -5.7500 0.2000 16.0000
v  0.2500 -3.0000 16.0000
v  0.2500 0.2000 16.0000
v  0.1250 0.2000 16.2165
v  0.1250 -3.0000 16.2165
v  0.2500 -3.0000 16.0000
v  0.1250 -3.0000 16.2165
v  0.0000 -3.0000 16.0000
v  0.2500 0.2000 16.0000
v  0.0000 0.2000 16.0000
v  0.1250 0.2000 16.2165
v  0.1250 -3.0000 16.2165
v  0.1250 0.2000 16.2165
v  -0.1250 0.2000 16.2165
v  -0.1250 -3.0000 16.2165
v  0.1250 -3.0000 16.2165
v  -0.1250 -3.0000 16.2165
v  0.0000 -3.0000 16.0000
v  0.1250 0.2000 16.2165
v  0.0000 0.2000 16.0000
v  -0.1250 0.2000 16.2165
v  -0.1250 -3.0000 16.2165
v  -0.1250 0.2000 16.2165
v  -0.2500 0.2000 16.0000
v  -0.2500 -3.0000 16.0000
v  -0.1250 -3.0000 16.2165
v  -0.2500 -3.0000 16.0000
v  0.0000 -3.0000 16.0000
v  -0.1250 0.2000 16.2165
v  0.0000 0.2000 16.0000
v  -0.2500 0.2000 16.0000
v  -0.2500 -3.0000 16.0000
v  -0.2500 0.2000 16.0000
v  -0.1250 0.2000 15.7835
v  -0.1250 -3.0000 15.7835
v  -0.2500 -3.0000 16.0000
v  -0.1250 -3.0000 15.7835
v  0.0000 -3.0000 16.0000
v  -0.2500 0.2000 16.0000
v  0.0000 0.2000 16.0000
v  -0.1250 0.2000 15.7835
v  -0.1250 -3.0000 15.7835
v  -0.1250 0.2000 15.7835
v  0.1250 0.2000 15.7835
v  0.1250 -3.0000 15.7835
v  -0.1250 -3.0000 15.7835
v  0.1250 -3.0000 15.7835
v  0.0000 -3.0000 16.0000
v  -0.1250 0.2000 15.7835
v  0.0000 0.2000 16.0000
v  0.1250 0.2000 15.7835
v  0.1250 -3.0000 15.7835
v  0.1250 0.2000 15.7835
v  0.2500 0.2000 16.0000
v  0.2500 -3.0000 16.0000
v  0.1250 -3.0000 15.7835
v  0.2500 -3.0000 16.0000
v  0.0000 -3.0000 16.0000
v  0.1250 0.2000 15.7835
v  0.0000 0.2000 16.0000
v  0.2500 0.2000 16.0000
v  6.2500 -3.0000 16.0000
v  6.2500 0.2000 16.0000
v  6.1250 0.2000 16.2165
v  6.1250 -3.0000 16.2165
v  6.2500 -3.0000 16.0000
v  6.1250 -3.0000 16.2165
v  6.0000 -3.0000 16.0000
v  6.2500 0.2000 16.0000
v  6.0000 0.2000 16.0000
v  6.1250 0.2000 16.2165
v  6.1250 -3.0000 16.2165
v  6.1250 0.2000 16.2165
v  5.8750 0.2000 16.2165
v  5.8750 -3.0000 16.2165
v  6.1250 -3.0000 16.2165
v  5.8750 -3.0000 16.2165
v  6.0000 -3.0000 16.0000
v  6.1250 0.2000 16.2165
v  6.0000 0.2000 16.0000
v  5.8750 0.2000 16.2165
v  5.8750 -3.0000 16.2165
v  5.8750 0.2000 16.2165
v  5.7500 0.2000 16.0000
v  5.7500 -3.0000 16.0000
v  5.8750 -3.0000 16.2165
v  5.7500 -3.0000 16.0000
v  6.0000 -3.0000 16.0000
v  5.8750 0.2000 16.2165
v  6.0000 0.2000 16.0000
v  5.7500 0.2000 16.0000
v  5.7500 -3.0000 16.0000
v  5.7500 0.2000 16.0000
v  5.8750 0.2000 15.7835
v  5.8750 -3.0000 15.7835
v  5.7500 -3.0000 16.0000
v  5.8750 -3.0000 15.7835
v  6.0000 -3.0000 16.0000
v  5.7500 0.2000 16.0000
v  6.0000 0.2000 16.0000
v  5.8750 0.2000 15.7835
v  5.8750 -3.0000 15.7835
v  5.8750 0.2000 15.7835
v  6.1250 0.2000 15.7835
v  6.1250 -3.0000 15.7835
v  5.8750 -3.0000 15.7835
v  6.1250 -3.0000 15.7835
v  6.0000 -3.0000 16.0000
v  5.8750 0.2000 15.7835
v  6.0000 0.2000 16.0000
v  6.1250 0.2000 15.7835
v  6.1250 -3.0000 15.7835
v  6.1250 0.2000 15.7835
v  6.2500 0.2000 16.0000
v  6.2500 -3.0000 16.0000
v  6.1250 -3.0000 15.7835
v  6.2500 -3.0000 16.0000
v  6.0000 -3.0000 16.0000
v  6.1250 0.2000 15.7835
v  6.0000 0.2000 16.0000
v  6.2500 0.2000 16.0000

vt 0.0000 0.0000
vt 0.0000 1.0000
vt 1.0000 1.0000
vt 1.0000 0.0000
vt 0.0000 0.0000
vt 0.0000 1.0000
vt 1.0000 1.0000
vt 1.0000 0.0000
vt 0.0000 0.0000
vt 0.0000 1.0000
vt 1.0000 1.0000
vt 1.0000 0.0000
vt 0.0000 0.0000
vt 0.0000 1.0000
vt 1.0000 1.0000
vt 1.0000 0.0000
vt 0.0000 0.0000
vt 0.0000 1.0000
vt 1.0000 1.0000
vt 1.0000 0.0000
vt 0.0000 0.0000
vt 0.0000 1.0000
vt 1.0000 1.0000
vt 1.0000 0.0000
vt 0.0000 0.0000
vt 0.0000 1.0000
vt 1.0000 1.0000
vt 1.0000 0.0000
vt 0.0000 0.0000
vt 0.0000 1.0000
vt 1.0000 1.0000
vt 1.0000 0.0000
vt 0.0000 0.0000
vt 0.0000 1.0000
vt 1.0000 1.0000
vt 1.0000 0.0000
vt 0.0000 0.0000
vt 0.0000 1.0000
vt 1.0000 1.0000
vt 1.0000 0.0000
vt 0.0000 0.0000
vt 0.0000 1.0000
vt 1.0000 1.0000
vt 1.0000 0.0000
vt 0.0000 0.0000
vt 0.0000 1.0000
vt 1.0000 1.0000
vt 1.0000 0.0000
vt 0.0000 0.0000
vt 0.0000 1.0000
vt 1.0000 1.0000
vt 1.0000 0.0000
vt 0.0000 0.0000
vt 0.0000 1.0000
vt 1.0000 1.0000
vt 1.0000 0.0000
vt 0.0000 0.0000
vt 0.0000 1.0000
vt 1.0000 1.0000
vt 1.0000 0.0000
vt 0.0000 0.0000
vt 0.0000 1.0000
vt 1.0000 1.0000
vt 1.0000 0.0000
vt 0.0000 0.0000
vt 0.0000 1.0000
vt 1.0000 1.0000
vt 1.0000 0.0000
vt 0.0000 0.0000
vt 0.0000 1.0000
vt 1.0000 1.0000
vt 1.0000 0.0000
vt 0.0000 0.0000
vt 0.0000 1.0000
vt 0.1667 1.0000
vt 0.1667 0.0000
vt 1.0000 0.5000
vt 0.7500 0.9330
vt 0.5000 0.5000
vt 1.0000 0.5000
vt 0.5000 0.5000
vt 0.7500 0.9330
vt 0.1667 0.0000
vt 0.1667 1.0000
vt 0.3333 1.0000
vt 0.3333 0.0000
vt 0.7500 0.9330
vt 0.2500 0.9330
vt 0.5000 0.5000
vt 0.7500 0.9330
vt 0.5000 0.5000
vt 0.2500 0.9330
vt 0.3333 0.0000
vt 0.3333 1.0000
vt 0.5000 1.0000
vt 0.5000 0.0000
vt 0.2500 0.9330
vt 0.0000 0.5000
vt 0.5000 0.5000
vt 0.2500 0.9330
vt 0.5000 0.5000
vt 0.0000 0.5000
vt 0.5000 0.0000
vt 0.5000 1.0000
vt 0.6667 1.0000
vt 0.6667 0.0000
vt 0.0000 0.5000
vt 0.2500 0.0670
vt 0.5000 0.5000
vt 0.0000 0.5000
vt 0.5000 0.5000
vt 0.2500 0.0670
vt 0.6667 0.0000
vt 0.6667 1.0000
vt 0.8333 1.0000
vt 0.8333 0.0000
vt 0.2500 0.0670
vt 0.7500 0.0670
vt 0.5000 0.5000
vt 0.2500 0.0670
vt 0.5000 0.5000
vt 0.7500 0.0670
vt 0.8333 0.0000
vt 0.8333 1.0000
vt 1.0000 1.0000
vt 1.0000 0.0000
vt 0.7500 0.0670
vt 1.0000 0.5000
vt 0.5000 0.5000
vt 0.7500 0.0670
vt 0.5000 0.5000
vt 1.0000 0.5000
vt 0.0000 0.0000
vt 0.0000 1.0000
vt 0.1667 1.0000
vt 0.1667 0.0000
vt 1.0000 0.5000
vt 0.7500 0.9330
vt 0.5000 0.5000
vt 1.0000 0.5000
vt 0.5000 0.5000
vt 0.7500 0.9330
vt 0.1667 0.0000
vt 0.1667 1.0000
vt 0.3333 1.0000
vt 0.3333 0.0000
vt 0.7500 0.9330
vt 0.2500 0.9330
vt 0.5000 0.5000
vt 0.7500 0.9330
vt 0.5000 0.5000
vt 0.2500 0.9330
vt 0.3333 0.0000
vt 0.3333 1.0000
vt 0.5000 1.0000
vt 0.5000 0.0000
vt 0.2500 0.9330
vt 0.0000 0.5000
vt 0.5000 0.5000
vt 0.2500 0.9330
vt 0.5000 0.5000
vt 0.0000 0.5000
vt 0.5000 0.0000
vt 0.5000 1.0000
vt 0.6667 1.0000
vt 0.6667 0.0000
vt 0.0000 0.5000
vt 0.2500 0.0670
vt 0.5000 0.5000
vt 0.0000 0.5000
vt 0.5000 0.5000
vt 0.2500 0.0670
vt 0.6667 0.0000
vt 0.6667 1.0000
vt 0.8333 1.0000
vt 0.8333 0.0000
vt 0.2500 0.0670
vt 0.7500 0.0670
vt 0.5000 0.5000
vt 0.2500 0.0670
vt 0.5000 0.5000
vt 0.7500 0.0670
vt 0.8333 0.0000
vt 0.8333 1.0000
vt 1.0000 1.0000
vt 1.0000 0.0000
vt 0.7500 0.0670
vt 1.0000 0.5000
vt 0.5000 0.5000
vt 0.7500 0.0670
vt 0.5000 0.5000
vt 1.0000 0.5000
vt 0.0000 0.0000
vt 0.0000 1.0000
vt 0.1667 1.0000
vt 0.1667 0.0000
vt 1.0000 0.5000
vt 0.7500 0.9330
vt 0.5000 0.5000
vt 1.0000 0.5000
vt 0.5000 0.5000
vt 0.7500 0.9330
vt 0.1667 0.0000
vt 0.1667 1.0000
vt 0.3333 1.0000
vt 0.3333 0.0000
vt 0.7500 0.9330
vt 0.2500 0.9330
vt 0.5000 0.5000
vt 0.7500 0.9330
vt 0.5000 0.5000
vt 0.2500 0.9330
vt 0.3333 0.0000
vt 0.3333 1.0000
vt 0.5000 1.0000
vt 0.5000 0.0000
vt 0.2500 0.9330
vt 0.0000 0.5000
vt 0.5000 0.5000
vt 0.2500 0.9330
vt 0.5000 0.5000
vt 0.0000 0.5000
vt 0.5000 0.0000
vt 0.5000 1.0000
vt 0.6667 1.0000
vt 0.6667 0.0000
vt 0.0000 0.5000
vt 0.2500 0.0670
vt 0.5000 0.5000
vt 0.0000 0.5000
vt 0.5000 0.5000
vt 0.2500 0.0670
vt 0.6667 0.0000
vt 0.6667 1.0000
vt 0.8333 1.0000
vt 0.8333 0.0000
vt 0.2500 0.0670
vt 0.7500 0.0670
vt 0.5000 0.5000
vt 0.2500 0.0670
vt 0.5000 0.5000
vt 0.7500 0.0670
vt 0.8333 0.0000
vt 0.8333 1.0000
vt 1.0000 1.0000
vt 1.0000 0.0000
vt 0.7500 0.0670
vt 1.0000 0.5000
vt 0.5000 0.5000
vt 0.7500 0.0670
vt 0.5000 0.5000
vt 1.0000 0.5000
vt 0.0000 0.0000
vt 0.0000 1.0000
vt 0.1667 1.0000
vt 0.1667 0.0000
vt 1.0000 0.5000
vt 0.7500 0.9330
vt 0.5000 0.5000
vt 1.0000 0.5000
vt 0.5000 0.5000
vt 0.7500 0.9330
vt 0.1667 0.0000
vt 0.1667 1.0000
vt 0.3333 1.0000
vt 0.3333 0.0000
vt 0.7500 0.9330
vt 0.2500 0.9330
vt 0.5000 0.5000
vt 0.7500 0.9330
vt 0.5000 0.5000
vt 0.2500 0.9330
vt 0.3333 0.0000
vt 0.3333 1.0000
vt 0.5000 1.0000
vt 0.5000 0.0000
vt 0.2500 0.9330
vt 0.0000 0.5000
vt 0.5000 0.5000
vt 0.2500 0.9330
vt 0.5000 0.5000
vt 0.0000 0.5000
vt 0.5000 0.0000
vt 0.5000 1.0000
vt 0.6667 1.0000
vt 0.6667 0.0000
vt 0.0000 0.5000
vt 0.2500 0.0670
vt 0.5000 0.5000
vt 0.0000 0.5000
vt 0.5000 0.5000
vt 0.2500 0.0670
vt 0.6667 0.0000
vt 0.6667 1.0000
vt 0.8333 1.0000
vt 0.8333 0.0000
vt 0.2500 0.0670
vt 0.7500 0.0670
vt 0.5000 0.5000
vt 0.2500 0.0670
vt 0.5000 0.5000
vt 0.7500 0.0670
vt 0.8333 0.0000
vt 0.8333 1.0000
vt 1.0000 1.0000
vt 1.0000 0.0000
vt 0.7500 0.0670
vt 1.0000 0.5000
vt 0.5000 0.5000
vt 0.7500 0.0670
vt 0.5000 0.5000
vt 1.0000 0.5000
vt 0.0000 0.0000
vt 0.0000 1.0000
vt 0.1667 1.0000
vt 0.1667 0.0000
vt 1.0000 0.5000
vt 0.7500 0.9330
vt 0.5000 0.5000
vt 1.0000 0.5000
vt 0.5000 0.5000
vt 0.7500 0.9330
vt 0.1667 0.0000
vt 0.1667 1.0000
vt 0.3333 1.0000
vt 0.3333 0.0000
vt 0.7500 0.9330
vt 0.2500 0.9330
vt 0.5000 0.5000
vt 0.7500 0.9330
vt 0.5000 0.5000
vt 0.2500 0.9330
vt 0.3333 0.0000
vt 0.3333 1.0000
vt 0.5000 1.0000
vt 0.5000 0.0000
vt 0.2500 0.9330
vt 0.0000 0.5000
vt 0.5000 0.5000
vt 0.2500 0.9330
vt 0.5000 0.5000
vt 0.0000 0.5000
vt 0.5000 0.0000
vt 0.5000 1.0000
vt 0.6667 1.0000
vt 0.6667 0.0000
vt 0.0000 0.5000
vt 0.2500 0.0670
vt 0.5000 0.5000
vt 0.0000 0.5000
vt 0.5000 0.5000
vt 0.2500 0.0670
vt 0.6667 0.0000
vt 0.6667 1.0000
vt 0.8333 1.0000
vt 0.8333 0.0000
vt 0.2500 0.0670
vt 0.7500 0.0670
vt 0.5000 0.5000
vt 0.2500 0.0670
vt 0.5000 0.5000
vt 0.7500 0.0670
vt 0.8333 0.0000
vt 0.8333 1.0000
vt 1.0000 1.0000
vt 1.0000 0.0000
vt 0.7500 0.0670
vt 1.0000 0.5000
vt 0.5000 0.5000
vt 0.7500 0.0670
vt 0.5000 0.5000
vt 1.0000 0.5000
vt 0.0000 0.0000
vt 0.0000 1.0000
vt 0.1667 1.0000
vt 0.1667 0.0000
vt 1.0000 0.5000
vt 0.7500 0.9330
vt 0.5000 0.5000
vt 1.0000 0.5000
vt 0.5000 0.5000
vt 0.7500 0.9330
vt 0.1667 0.0000
vt 0.1667 1.0000
vt 0.3333 1.0000
vt 0.3333 0.0000
vt 0.7500 0.9330
vt 0.2500 0.9330
vt 0.5000 0.5000
vt 0.7500 0.9330
vt 0.5000 0.5000
vt 0.2500 0.9330
vt 0.3333 0.0000
vt 0.3333 1.0000
vt 0.5000 1.0000
vt 0.5000 0.0000
vt 0.2500 0.9330
vt 0.0000 0.5000
vt 0.5000 0.5000
vt 0.2500 0.9330
vt 0.5000 0.5000
vt 0.0000 0.5000
vt 0.5000 0.0000
vt 0.5000 1.0000
vt 0.6667 1.0000
vt 0.6667 0.0000
vt 0.0000 0.5000
vt 0.2500 0.0670
vt 0.5000 0.5000
vt 0.0000 0.5000
vt 0.5000 0.5000
vt 0.2500 0.0670
vt 0.6667 0.0000
vt 0.6667 1.0000
vt 0.8333 1.0000
vt 0.8333 0.0000
vt 0.2500 0.0670
vt 0.7500 0.0670
vt 0.5000 0.5000
vt 0.2500 0.0670
vt 0.5000 0.5000
vt 0.7500 0.0670
vt 0.8333 0.0000
vt 0.8333 1.0000
vt 1.0000 1.0000
vt 1.0000 0.0000
vt 0.7500 0.0670
vt 1.0000 0.5000
vt 0.5000 0.5000
vt 0.7500 0.0670
vt 0.5000 0.5000
vt 1.0000 0.5000
vt 0.0000 0.0000
vt 0.0000 1.0000
vt 0.1667 1.0000
vt 0.1667 0.0000
vt 1.0000 0.5000
vt 0.7500 0.9330
vt 0.5000 0.5000
vt 1.0000 0.5000
vt 0.5000 0.5000
vt 0.7500 0.9330
vt 0.1667 0.0000
vt 0.1667 1.0000
vt 0.3333 1.0000
vt 0.3333 0.0000
vt 0.7500 0.9330
vt 0.2500 0.9330
vt 0.5000 0.5000
vt 0.7500 0.9330
vt 0.5000 0.5000
vt 0.2500 0.9330
vt 0.3333 0.0000
vt 0.3333 1.0000
vt 0.5000 1.0000
vt 0.5000 0.0000
vt 0.2500 0.9330
vt 0.0000 0.5000
vt 0.5000 0.5000
vt 0.2500 0.9330
vt 0.5000 0.5000
vt 0.0000 0.5000
vt 0.5000 0.0000
vt 0.5000 1.0000
vt 0.6667 1.0000
vt 0.6667 0.0000
vt 0.0000 0.5000
vt 0.2500 0.0670
vt 0.5000 0.5000
vt 0.0000 0.5000
vt 0.5000 0.5000
vt 0.2500 0.0670
vt 0.6667 0.0000
vt 0.6667 1.0000
vt 0.8333 1.0000
vt 0.8333 0.0000
vt 0.2500 0.0670
vt 0.7500 0.0670
vt 0.5000 0.5000
vt 0.2500 0.0670
vt 0.5000 0.5000
vt 0.7500 0.0670
vt 0.8333 0.0000
vt 0.8333 1.0000
vt 1.0000 1.0000
vt 1.0000 0.0000
vt 0.7500 0.0670
vt 1.0000 0.5000
vt 0.5000 0.5000
vt 0.7500 0.0670
vt 0.5000 0.5000
vt 1.0000 0.5000
vt 0.0000 0.0000
vt 0.0000 1.0000
vt 0.1667 1.0000
vt 0.1667 0.0000
vt 1.0000 0.5000
vt 0.7500 0.9330
vt 0.5000 0.5000
vt 1.0000 0.5000
vt 0.5000 0.5000
vt 0.7500 0.9330
vt 0.1667 0.0000
vt 0.1667 1.0000
vt 0.3333 1.0000
vt 0.3333 0.0000
vt 0.7500 0.9330
vt 0.2500 0.9330
vt 0.5000 0.5000
vt 0.7500 0.9330
vt 0.5000 0.5000
vt 0.2500 0.9330
vt 0.3333 0.0000
vt 0.3333 1.0000
vt 0.5000 1.0000
vt 0.5000 0.0000
vt 0.2500 0.9330
vt 0.0000 0.5000
vt 0.5000 0.5000
vt 0.2500 0.9330
vt 0.5000 0.5000
vt 0.0000 0.5000
vt 0.5000 0.0000
vt 0.5000 1.0000
vt 0.6667 1.0000
vt 0.6667 0.0000
vt 0.0000 0.5000
vt 0.2500 0.0670
vt 0.5000 0.5000
vt 0.0000 0.5000
vt 0.5000 0.5000
vt 0.2500 0.0670
vt 0.6667 0.0000
vt 0.6667 1.0000
vt 0.8333 1.0000
vt 0.8333 0.0000
vt 0.2500 0.0670
vt 0.7500 0.0670
vt 0.5000 0.5000
vt 0.2500 0.0670
vt 0.5000 0.5000
vt 0.7500 0.0670
vt 0.8333 0.0000
vt 0.8333 1.0000
vt 1.0000 1.0000
vt 1.0000 0.0000
vt 0.7500 0.0670
vt 1.0000 0.5000
vt 0.5000 0.5000
vt 0.7500 0.0670
vt 0.5000 0.5000
vt 1.0000 0.5000
vt 0.0000 0.0000
vt 0.0000 1.0000
vt 0.1667 1.0000
vt 0.1667 0.0000
vt 1.0000 0.5000
vt 0.7500 0.9330
vt 0.5000 0.5000
vt 1.0000 0.5000
vt 0.5000 0.5000
vt 0.7500 0.9330
vt 0.1667 0.0000
vt 0.1667 1.0000
vt 0.3333 1.0000
vt 0.3333 0.0000
vt 0.7500 0.9330
vt 0.2500 0.9330
vt 0.5000 0.5000
vt 0.7500 0.9330
vt 0.5000 0.5000
vt 0.2500 0.9330
vt 0.3333 0.0000
vt 0.3333 1.0000
vt 0.5000 1.0000
vt 0.5000 0.0000
vt 0.2500 0.9330
vt 0.0000 0.5000
vt 0.5000 0.5000
vt 0.2500 0.9330
vt 0.5000 0.5000
vt 0.0000 0.5000
vt 0.5000 0.0000
vt 0.5000 1.0000
vt 0.6667 1.0000
vt 0.6667 0.0000
vt 0.0000 0.5000
vt 0.2500 0.0670
vt 0.5000 0.5000
vt 0.0000 0.5000
vt 0.5000 0.5000
vt 0.2500 0.0670
vt 0.6667 0.0000
vt 0.6667 1.0000
vt 0.8333 1.0000
vt 0.8333 0.0000
vt 0.2500 0.0670
vt 0.7500 0.0670
vt 0.5000 0.5000
vt 0.2500 0.0670
vt 0.5000 0.5000
vt 0.7500 0.0670
vt 0.8333 0.0000
vt 0.8333 1.0000
vt 1.0000 1.0000
vt 1.0000 0.0000
vt 0.7500 0.0670
vt 1.0000 0.5000
vt 0.5000 0.5000
vt 0.7500 0.0670
vt 0.5000 0.5000
vt 1.0000 0.5000
vt 0.0000 0.0000
vt 0.0000 1.0000
vt 0.1667 1.0000
vt 0.1667 0.0000
vt 1.0000 0.5000
vt 0.7500 0.9330
vt 0.5000 0.5000
vt 1.0000 0.5000
vt 0.5000 0.5000
vt 0.7500 0.9330
vt 0.1667 0.0000
vt 0.1667 1.0000
vt 0.3333 1.0000
vt 0.3333 0.0000
vt 0.7500 0.9330
vt 0.2500 0.9330
vt 0.5000 0.5000
vt 0.7500 0.9330
vt 0.5000 0.5000
vt 0.2500 0.9330
vt 0.3333 0.0000
vt 0.3333 1.0000
vt 0.5000 1.0000
vt 0.5000 0.0000
vt 0.2500 0.9330
vt 0.0000 0.5000
vt 0.5000 0.5000
vt 0.2500 0.9330
vt 0.5000 0.5000
vt 0.0000 0.5000
vt 0.5000 0.0000
vt 0.5000 1.0000
vt 0.6667 1.0000
vt 0.6667 0.0000
vt 0.0000 0.5000
vt 0.2500 0.0670
vt 0.5000 0.5000
vt 0.0000 0.5000
vt 0.5000 0.5000
vt 0.2500 0.0670
vt 0.6667 0.0000
vt 0.6667 1.0000
vt 0.8333 1.0000
vt 0.8333 0.0000
vt 0.2500 0.0670
vt 0.7500 0.0670
vt 0.5000 0.5000
vt 0.2500 0.0670
vt 0.5000 0.5000
vt 0.7500 0.0670
vt 0.8333 0.0000
vt 0.8333 1.0000
vt 1.0000 1.0000
vt 1.0000 0.0000
vt 0.7500 0.0670
vt 1.0000 0.5000
vt 0.5000 0.5000
vt 0.7500 0.0670
vt 0.5000 0.5000
vt 1.0000 0.5000
vt 0.0000 0.0000
vt 0.0000 1.0000
vt 0.1667 1.0000
vt 0.1667 0.0000
vt 1.0000 0.5000
vt 0.7500 0.9330
vt 0.5000 0.5000
vt 1.0000 0.5000
vt 0.5000 0.5000
vt 0.7500 0.9330
vt 0.1667 0.0000
vt 0.1667 1.0000
vt 0.3333 1.0000
vt 0.3333 0.0000
vt 0.7500 0.9330
vt 0.2500 0.9330
vt 0.5000 0.5000
vt 0.7500 0.9330
vt 0.5000 0.5000
vt 0.2500 0.9330
vt 0.3333 0.0000
vt 0.3333 1.0000
vt 0.5000 1.0000
vt 0.5000 0.0000
vt 0.2500 0.9330
vt 0.0000 0.5000
vt 0.5000 0.5000
vt 0.2500 0.9330
vt 0.5000 0.5000
vt 0.0000 0.5000
vt 0.5000 0.0000
vt 0.5000 1.0000
vt 0.6667 1.0000
vt 0.6667 0.0000
vt 0.0000 0.5000
vt 0.2500 0.0670
vt 0.5000 0.5000
vt 0.0000 0.5000
vt 0.5000 0.5000
vt 0.2500 0.0670
vt 0.6667 0.0000
vt 0.6667 1.0000
vt 0.8333 1.0000
vt 0.8333 0.0000
vt 0.2500 0.0670
vt 0.7500 0.0670
vt 0.5000 0.5000
vt 0.2500 0.0670
vt 0.5000 0.5000
vt 0.7500 0.0670
vt 0.8333 0.0000
vt 0.8333 1.0000
vt 1.0000 1.0000
vt 1.0000 0.0000
vt 0.7500 0.0670
vt 1.0000 0.5000
vt 0.5000 0.5000
vt 0.7500 0.0670
vt 0.5000 0.5000
vt 1.0000 0.5000
vt 0.0000 0.0000
vt 0.0000 1.0000
vt 0.1667 1.0000
vt 0.1667 0.0000
vt 1.0000 0.5000
vt 0.7500 0.9330
vt 0.5000 0.5000
vt 1.0000 0.5000
vt 0.5000 0.5000
vt 0.7500 0.9330
vt 0.1667 0.0000
vt 0.1667 1.0000
vt 0.3333 1.0000
vt 0.3333 0.0000
vt 0.7500 0.9330
vt 0.2500 0.9330
vt 0.5000 0.5000
vt 0.7500 0.9330
vt 0.5000 0.5000
vt 0.2500 0.9330
vt 0.3333 0.0000
vt 0.3333 1.0000
vt 0.5000 1.0000
vt 0.5000 0.0000
vt 0.2500 0.9330
vt 0.0000 0.5000
vt 0.5000 0.5000
vt 0.2500 0.9330
vt 0.5000 0.5000
vt 0.0000 0.5000
vt 0.5000 0.0000
vt 0.5000 1.0000
vt 0.6667 1.0000
vt 0.6667 0.0000
vt 0.0000 0.5000
vt 0.2500 0.0670
vt 0.5000 0.5000
vt 0.0000 0.5000
vt 0.5000 0.5000
vt 0.2500 0.0670
vt 0.6667 0.0000
vt 0.6667 1.0000
vt 0.8333 1.0000
vt 0.8333 0.0000
vt 0.2500 0.0670
vt 0.7500 0.0670
vt 0.5000 0.5000
vt 0.2500 0.0670
vt 0.5000 0.5000
vt 0.7500 0.0670
vt 0.8333 0.0000
vt 0.8333 1.0000
vt 1.0000 1.0000
vt 1.0000 0.0000
vt 0.7500 0.0670
vt 1.0000 0.5000
vt 0.5000 0.5000
vt 0.7500 0.0670
vt 0.5000 0.5000
vt 1.0000 0.5000
vt 0.0000 0.0000
vt 0.0000 1.0000
vt 0.1667 1.0000
vt 0.1667 0.0000
vt 1.0000 0.5000
vt 0.7500 0.9330
vt 0.5000 0.5000
vt 1.0000 0.5000
vt 0.5000 0.5000
vt 0.7500 0.9330
vt 0.1667 0.0000
vt 0.1667 1.0000
vt 0.3333 1.0000
vt 0.3333 0.0000
vt 0.7500 0.9330
vt 0.2500 0.9330
vt 0.5000 0.5000
vt 0.7500 0.9330
vt 0.5000 0.5000
vt 0.2500 0.9330
vt 0.3333 0.0000
vt 0.3333 1.0000
vt 0.5000 1.0000
vt 0.5000 0.0000
vt 0.2500 0.9330
vt 0.0000 0.5000
vt 0.5000 0.5000
vt 0.2500 0.9330
vt 0.5000 0.5000
vt 0.0000 0.5000
vt 0.5000 0.0000
vt 0.5000 1.0000
vt 0.6667 1.0000
vt 0.6667 0.0000
vt 0.0000 0.5000
vt 0.2500 0.0670
vt 0.5000 0.5000
vt 0.0000 0.5000
vt 0.5000 0.5000
vt 0.2500 0.0670
vt 0.6667 0.0000
vt 0.6667 1.0000
vt 0.8333 1.0000
vt 0.8333 0.0000
vt 0.2500 0.0670
vt 0.7500 0.0670
vt 0.5000 0.5000
vt 0.2500 0.0670
vt 0.5000 0.5000
vt 0.7500 0.0670
vt 0.8333 0.0000
vt 0.8333 1.0000
vt 1.0000 1.0000
vt 1.0000 0.0000
vt 0.7500 0.0670
vt 1.0000 0.5000
vt 0.5000 0.5000
vt 0.7500 0.0670
vt 0.5000 0.5000
vt 1.0000 0.5000
vt 0.0000 0.0000
vt 0.0000 1.0000
vt 0.1667 1.0000
vt 0.1667 0.0000
vt 1.0000 0.5000
vt 0.7500 0.9330
vt 0.5000 0.5000
vt 1.0000 0.5000
vt 0.5000 0.5000
vt 0.7500 0.9330
vt 0.1667 0.0000
vt 0.1667 1.0000
vt 0.3333 1.0000
vt 0.3333 0.0000
vt 0.7500 0.9330
vt 0.2500 0.9330
vt 0.5000 0.5000
vt 0.7500 0.9330
vt 0.5000 0.5000
vt 0.2500 0.9330
vt 0.3333 0.0000
vt 0.3333 1.0000
vt 0.5000 1.0000
vt 0.5000 0.0000
vt 0.2500 0.9330
vt 0.0000 0.5000
vt 0.5000 0.5000
vt 0.2500 0.9330
vt 0.5000 0.5000
vt 0.0000 0.5000
vt 0.5000 0.0000
vt 0.5000 1.0000
vt 0.6667 1.0000
vt 0.6667 0.0000
vt 0.0000 0.5000
vt 0.2500 0.0670
vt 0.5000 0.5000
vt 0.0000 0.5000
vt 0.5000 0.5000
vt 0.2500 0.0670
vt 0.6667 0.0000
vt 0.6667 1.0000
vt 0.8333 1.0000
vt 0.8333 0.0000
vt 0.2500 0.0670
vt 0.7500 0.0670
vt 0.5000 0.5000
vt 0.2500 0.0670
vt 0.5000 0.5000
vt 0.7500 0.0670
vt 0.8333 0.0000
vt 0.8333 1.0000
vt 1.0000 1.0000
vt 1.0000 0.0000
vt 0.7500 0.0670
vt 1.0000 0.5000
vt 0.5000 0.5000
vt 0.7500 0.0670
vt 0.5000 0.5000
vt 1.0000 0.5000
vt 0.0000 0.0000
vt 0.0000 1.0000
vt 0.1667 1.0000
vt 0.1667 0.0000
vt 1.0000 0.5000
vt 0.7500 0.9330
vt 0.5000 0.5000
vt 1.0000 0.5000
vt 0.5000 0.5000
vt 0.7500 0.9330
vt 0.1667 0.0000
vt 0.1667 1.0000
vt 0.3333 1.0000
vt 0.3333 0.0000
vt 0.7500 0.9330
vt 0.2500 0.9330
vt 0.5000 0.5000
vt 0.7500 0.9330
vt 0.5000 0.5000
vt 0.2500 0.9330
vt 0.3333 0.0000
vt 0.3333 1.0000
vt 0.5000 1.0000
vt 0.5000 0.0000
vt 0.2500 0.9330
vt 0.0000 0.5000
vt 0.5000 0.5000
vt 0.2500 0.9330
vt 0.5000 0.5000
vt 0.0000 0.5000
vt 0.5000 0.0000
vt 0.5000 1.0000
vt 0.6667 1.0000
vt 0.6667 0.0000
vt 0.0000 0.5000
vt 0.2500 0.0670
vt 0.5000 0.5000
vt 0.0000 0.5000
vt 0.5000 0.5000
vt 0.2500 0.0670
vt 0.6667 0.0000
vt 0.6667 1.0000
vt 0.8333 1.0000
vt 0.8333 0.0000
vt 0.2500 0.0670
vt 0.7500 0.0670
vt 0.5000 0.5000
vt 0.2500 0.0670
vt 0.5000 0.5000
vt 0.7500 0.0670
vt 0.8333 0.0000
vt 0.8333 1.0000
vt 1.0000 1.0000
vt 1.0000 0.0000
vt 0.7500 0.0670
vt 1.0000 0.5000
vt 0.5000 0.5000
vt 0.7500 0.0670
vt 0.5000 0.5000
vt 1.0000 0.5000

vn 0.0000 0.0000 -1.0000
vn 0.0000 0.0000 1.0000
vn -1.0000 0.0000 0.0000
vn 1.0000 0.0000 0.0000
vn 0.0000 -1.0000 0.0000
vn 0.0000 1.0000 0.0000
vn 0.0000 0.0000 -1.0000
vn 0.0000 0.0000 1.0000
vn -1.0000 0.0000 0.0000
vn 1.0000 0.0000 0.0000
vn 0.0000 -1.0000 0.0000
vn 0.0000 1.0000 0.0000
vn 0.0000 0.0000 -1.0000
vn 0.0000 0.0000 1.0000
vn -1.0000 0.0000 0.0000
vn 1.0000 0.0000 0.0000
vn 0.0000 -1.0000 0.0000
vn 0.0000 1.0000 0.0000
vn 0.8660 0.0000 0.5000
vn 0.0000 -1.0000 0.0000
vn 0.0000 1.0000 0.0000
vn 0.0000 0.0000 1.0000
vn 0.0000 -1.0000 0.0000
vn 0.0000 1.0000 0.0000
vn -0.8660 0.0000 0.5000
vn 0.0000 -1.0000 0.0000
vn 0.0000 1.0000 0.0000
vn -0.8660 0.0000 -0.5000
vn 0.0000 -1.0000 0.0000
vn 0.0000 1.0000 0.0000
vn -0.0000 0.0000 -1.0000
vn 0.0000 -1.0000 0.0000
vn 0.0000 1.0000 0.0000
vn -0.8660 0.0000 0.5000
vn 0.0000 -1.0000 0.0000
vn 0.0000 1.0000 0.0000
vn 0.8660 0.0000 0.5000
vn 0.0000 -1.0000 0.0000
vn 0.0000 1.0000 0.0000
vn 0.0000 0.0000 1.0000
vn 0.0000 -1.0000 0.0000
vn 0.0000 1.0000 0.0000
vn -0.8660 0.0000 0.5000
vn 0.0000 -1.0000 0.0000
vn 0.0000 1.0000 0.0000
vn -0.8660 0.0000 -0.5000
vn 0.0000 -1.0000 0.0000
vn 0.0000 1.0000 0.0000
vn -0.0000 0.0000 -1.0000
vn 0.0000 -1.0000 0.0000
vn 0.0000 1.0000 0.0000
vn -0.8660 0.0000 0.5000
vn 0.0000 -1.0000 0.0000
vn 0.0000 1.0000 0.0000
vn 0.8660 0.0000 0.5000
vn 0.0000 -1.0000 0.0000
vn 0.0000 1.0000 0.0000
vn 0.0000 0.0000 1.0000
vn 0.0000 -1.0000 0.0000
vn 0.0000 1.0000 0.0000
vn -0.8660 0.0000 0.5000
vn 0.0000 -1.0000 0.0000
vn 0.0000 1.0000 0.0000
vn -0.8660 0.0000 -0.5000
vn 0.0000 -1.0000 0.0000
vn 0.0000 1.0000 0.0000
vn -0.0000 0.0000 -1.0000
vn 0.0000 -1.0000 0.0000
vn 0.0000 1.0000 0.0000
vn -0.8660 0.0000 0.5000
vn 0.0000 -1.0000 0.0000
vn 0.0000 1.0000 0.0000
vn 0.8660 0.0000 0.5000
vn 0.0000 -1.0000 0.0000
vn 0.0000 1.0000 0.0000
vn 0.0000 0.0000 1.0000
vn 0.0000 -1.0000 0.0000
vn 0.0000 1.0000 0.0000
vn -0.8660 0.0000 0.5000
vn 0.0000 -1.0000 0.0000
vn 0.0000 1.0000 0.0000
vn -0.8660 0.0000 -0.5000
vn 0.0000 -1.0000 0.0000
vn 0.0000 1.0000 0.0000
vn -0.0000 0.0000 -1.0000
vn 0.0000 -1.0000 0.0000
vn 0.0000 1.0000 0.0000
vn -0.8660 0.0000 0.5000
vn 0.0000 -1.0000 0.0000
vn 0.0000 1.0000 0.0000
vn 0.8660 0.0000 0.5000
vn 0.0000 -1.0000 0.0000
vn 0.0000 1.0000 0.0000
vn 0.0000 0.0000 1.0000
vn 0.0000 -1.0000 0.0000
vn 0.0000 1.0000 0.0000
vn -0.8660 0.0000 0.5000
vn 0.0000 -1.0000 0.0000
vn 0.0000 1.0000 0.0000
vn -0.8660 0.0000 -0.5000
vn 0.0000 -1.0000 0.0000
vn 0.0000 1.0000 0.0000
vn -0.0000 0.0000 -1.0000
vn 0.0000 -1.0000 0.0000
vn 0.0000 1.0000 0.0000
vn -0.8660 0.0000 0.5000
vn 0.0000 -1.0000 0.0000
vn 0.0000 1.0000 0.0000
vn 0.8660 0.0000 0.5000
vn 0.0000 -1.0000 0.0000
vn 0.0000 1.0000 0.0000
vn 0.0000 0.0000 1.0000
vn 0.0000 -1.0000 0.0000
vn 0.0000 1.0000 0.0000
vn -0.8660 0.0000 0.5000
vn 0.0000 -1.0000 0.0000
vn 0.0000 1.0000 0.0000
vn -0.8660 0.0000 -0.5000
vn 0.0000 -1.0000 0.0000
vn 0.0000 1.0000 0.0000
vn -0.0000 0.0000 -1.0000
vn 0.0000 -1.0000 0.0000
vn 0.0000 1.0000 0.0000
vn -0.8660 0.0000 0.5000
vn 0.0000 -1.0000 0.0000
vn 0.0000 1.0000 0.0000
vn 0.8660 0.0000 0.5000
vn 0.0000 -1.0000 0.0000
vn 0.0000 1.0000 0.0000
vn 0.0000 0.0000 1.0000
vn 0.0000 -1.0000 0.0000
vn 0.0000 1.0000 0.0000
vn -0.8660 0.0000 0.5000
vn 0.0000 -1.0000 0.0000
vn 0.0000 1.0000 0.0000
vn -0.8660 0.0000 -0.5000
vn 0.0000 -1.0000 0.0000
vn 0.0000 1.0000 0.0000
vn -0.0000 0.0000 -1.0000
vn 0.0000 -1.0000 0.0000
vn 0.0000 1.0000 0.0000
vn -0.8660 0.0000 0.5000
vn 0.0000 -1.0000 0.0000
vn 0.0000 1.0000 0.0000
vn 0.8660 0.0000 0.5000
vn 0.0000 -1.0000 0.0000
vn 0.0000 1.0000 0.0000
vn 0.0000 0.0000 1.0000
vn 0.0000 -1.0000 0.0000
vn 0.0000 1.0000 0.0000
vn -0.8660 0.0000 0.5000
vn 0.0000 -1.0000 0.0000
vn 0.0000 1.0000 0.0000
vn -0.8660 0.0000 -0.5000
vn 0.0000 -1.0000 0.0000
vn 0.0000 1.0000 0.0000
vn -0.0000 0.0000 -1.0000
vn 0.0000 -1.0000 0.0000
vn 0.0000 1.0000 0.0000
vn -0.8660 0.0000 0.5000
vn 0.0000 -1.0000 0.0000
vn 0.0000 1.0000 0.0000
vn 0.8660 0.0000 0.5000
vn 0.0000 -1.0000 0.0000
vn 0.0000 1.0000 0.0000
vn 0.0000 0.0000 1.0000
vn 0.0000 -1.0000 0.0000
vn 0.0000 1.0000 0.0000
vn -0.8660 0.0000 0.5000
vn 0.0000 -1.0000 0.0000
vn 0.0000 1.0000 0.0000
vn -0.8660 0.0000 -0.5000
vn 0.0000 -1.0000 0.0000
vn 0.0000 1.0000 0.0000
vn -0.0000 0.0000 -1.0000
vn 0.0000 -1.0000 0.0000
vn 0.0000 1.0000 0.0000
vn -0.8660 0.0000 0.5000
vn 0.0000 -1.0000 0.0000
vn 0.0000 1.0000 0.0000
vn 0.8660 0.0000 0.5000
vn 0.0000 -1.0000 0.0000
vn 0.0000 1.0000 0.0000
vn 0.0000 0.0000 1.0000
vn 0.0000 -1.0000 0.0000
vn 0.0000 1.0000 0.0000
vn -0.8660 0.0000 0.5000
vn 0.0000 -1.0000 0.0000
vn 0.0000 1.0000 0.0000
vn -0.8660 0.0000 -0.5000
vn 0.0000 -1.0000 0.0000
vn 0.0000 1.0000 0.0000
vn -0.0000 0.0000 -1.0000
vn 0.0000 -1.0000 0.0000
vn 0.0000 1.0000 0.0000
vn -0.8660 0.0000 0.5000
vn 0.0000 -1.0000 0.0000
vn 0.0000 1.0000 0.0000
vn 0.8660 0.0000 0.5000
vn 0.0000 -1.0000 0.0000
vn 0.0000 1.0000 0.0000
vn 0.0000 0.0000 1.0000
vn 0.0000 -1.0000 0.0000
vn 0.0000 1.0000 0.0000
vn -0.8660 0.0000 0.5000
vn 0.0000 -1.0000 0.0000
vn 0.0000 1.0000 0.0000
vn -0.8660 0.0000 -0.5000
vn 0.0000 -1.0000 0.0000
vn 0.0000 1.0000 0.0000
vn -0.0000 0.0000 -1.0000
vn 0.0000 -1.0000 0.0000
vn 0.0000 1.0000 0.0000
vn -0.8660 0.0000 0.5000
vn 0.0000 -1.0000 0.0000
vn 0.0000 1.0000 0.0000
vn 0.8660 0.0000 0.5000
vn 0.0000 -1.0000 0.0000
vn 0.0000 1.0000 0.0000
vn 0.0000 0.0000 1.0000
vn 0.0000 -1.0000 0.0000
vn 0.0000 1.0000 0.0000
vn -0.8660 0.0000 0.5000
vn 0.0000 -1.0000 0.0000
vn 0.0000 1.0000 0.0000
vn -0.8660 0.0000 -0.5000
vn 0.0000 -1.0000 0.0000
vn 0.0000 1.0000 0.0000
vn -0.0000 0.0000 -1.0000
vn 0.0000 -1.0000 0.0000
vn 0.0000 1.0000 0.0000
vn -0.8660 0.0000 0.5000
vn 0.0000 -1.0000 0.0000
vn 0.0000 1.0000 0.0000
vn 0.8660 0.0000 0.5000
vn 0.0000 -1.0000 0.0000
vn 0.0000 1.0000 0.0000
vn 0.0000 0.0000 1.0000
vn 0.0000 -1.0000 0.0000
vn 0.0000 1.0000 0.0000
vn -0.8660 0.0000 0.5000
vn 0.0000 -1.0000 0.0000
vn 0.0000 1.0000 0.0000
vn -0.8660 0.0000 -0.5000
vn 0.0000 -1.0000 0.0000
vn 0.0000 1.0000 0.0000
vn -0.0000 0.0000 -1.0000
vn 0.0000 -1.0000 0.0000
vn 0.0000 1.0000 0.0000
vn -0.8660 0.0000 0.5000
vn 0.0000 -1.0000 0.0000
vn 0.0000 1.0000 0.0000
vn 0.8660 0.0000 0.5000
vn 0.0000 -1.0000 0.0000
vn 0.0000 1.0000 0.0000
vn 0.0000 0.0000 1.0000
vn 0.0000 -1.0000 0.0000
vn 0.0000 1.0000 0.0000
vn -0.8660 0.0000 0.5000
vn 0.0000 -1.0000 0.0000
vn 0.0000 1.0000 0.0000
vn -0.8660 0.0000 -0.5000
vn 0.0000 -1.0000 0.0000
vn 0.0000 1.0000 0.0000
vn -0.0000 0.0000 -1.0000
vn 0.0000 -1.0000 0.0000
vn 0.0000 1.0000 0.0000
vn -0.8660 0.0000 0.5000
vn 0.0000 -1.0000 0.0000
vn 0.0000 1.0000 0.0000
vn 0.8660 0.0000 0.5000
vn 0.0000 -1.0000 0.0000
vn 0.0000 1.0000 0.0000
vn 0.0000 0.0000 1.0000
vn 0.0000 -1.0000 0.0000
vn 0.0000 1.0000 0.0000
vn -0.8660 0.0000 0.5000
vn 0.0000 -1.0000 0.0000
vn 0.0000 1.0000 0.0000
vn -0.8660 0.0000 -0.5000
vn 0.0000 -1.0000 0.0000
vn 0.0000 1.0000 0.0000
vn -0.0000 0.0000 -1.0000
vn 0.0000 -1.0000 0.0000
vn 0.0000 1.0000 0.0000
vn -0.8660 0.0000 0.5000
vn 0.0000 -1.0000 0.0000
vn 0.0000 1.0000 0.0000

usemtl wood
f 1/1/1 2/2/1 3/3/1
f 1/1/1 3/3/1 4/4/1
f 5/5/2 6/6/2 7/7/2
f 5/5/2 7/7/2 8/8/2
f 9/9/3 10/10/3 11/11/3
f 9/9/3 11/11/3 12/12/3
f 13/13/4 14/14/4 15/15/4
f 13/13/4 15/15/4 16/16/4
f 17/17/5 18/18/5 19/19/5
f 17/17/5 19/19/5 20/20/5
f 21/21/6 22/22/6 23/23/6
f 21/21/6 23/23/6 24/24/6
f 25/25/7 26/26/7 27/27/7
f 25/25/7 27/27/7 28/28/7
f 29/29/8 30/30/8 31/31/8
f 29/29/8 31/31/8 32/32/8
f 33/33/9 34/34/9 35/35/9
f 33/33/9 35/35/9 36/36/9
f 37/37/10 38/38/10 39/39/10
f 37/37/10 39/39/10 40/40/10
f 41/41/11 42/42/11 43/43/11
f 41/41/11 43/43/11 44/44/11
f 45/45/12 46/46/12 47/47/12
f 45/45/12 47/47/12 48/48/12
f 49/49/13 50/50/13 51/51/13
f 49/49/13 51/51/13 52/52/13
f 53/53/14 54/54/14 55/55/14
f 53/53/14 55/55/14 56/56/14
f 57/57/15 58/58/15 59/59/15
f 57/57/15 59/59/15 60/60/15
f 61/61/16 62/62/16 63/63/16
f 61/61/16 63/63/16 64/64/16
f 65/65/17 66/66/17 67/67/17
f 65/65/17 67/67/17 68/68/17
f 69/69/18 70/70/18 71/71/18
f 69/69/18 71/71/18 72/72/18
f 73/73/19 74/74/19 75/75/19
f 73/73/19 75/75/19 76/76/19
f 77/77/20 78/78/20 79/79/20
f 80/80/21 81/81/21 82/82/21
f 83/83/22 84/84/22 85/85/22
f 83/83/22 85/85/22 86/86/22
f 87/87/23 88/88/23 89/89/23
f 90/90/24 91/91/24 92/92/24
f 93/93/25 94/94/25 95/95/25
f 93/93/25 95/95/25 96/96/25
f 97/97/26 98/98/26 99/99/26
f 100/100/27 101/101/27 102/102/27
f 103/103/28 104/104/28 105/105/28
f 103/103/28 105/105/28 106/106/28
f 107/107/29 108/108/29 109/109/29
f 110/110/30 111/111/30 112/112/30
f 113/113/31 114/114/31 115/115/31
f 113/113/31 115/115/31 116/116/31
f 117/117/32 118/118/32 119/119/32
f 120/120/33 121/121/33 122/122/33
f 123/123/34 124/124/34 125/125/34
f 123/123/34 125/125/34 126/126/34
f 127/127/35 128/128/35 129/129/35
f 130/130/36 131/131/36 132/132/36
f 133/133/37 134/134/37 135/135/37
f 133/133/37 135/135/37 136/136/37
f 137/137/38 138/138/38 139/139/38
f 140/140/39 141/141/39 142/142/39
f 143/143/40 144/144/40 145/145/40
f 143/143/40 145/145/40 146/146/40
f 147/147/41 148/148/41 149/149/41
f 150/150/42 151/151/42 152/152/42
f 153/153/43 154/154/43 155/155/43
f 153/153/43 155/155/43 156/156/43
f 157/157/44 158/158/44 159/159/44
f 160/160/45 161/161/45 162/162/45
f 163/163/46 164/164/46 165/165/46
f 163/163/46 165/165/46 166/166/46
f 167/167/47 168/168/47 169/169/47
f 170/170/48 171/171/48 172/172/48
f 173/173/49 174/174/49 175/175/49
f 173/173/49 175/175/49 176/176/49
f 177/177/50 178/178/50 179/179/50
f 180/180/51 181/181/51 182/182/51
f 183/183/52 184/184/52 185/185/52
f 183/183/52 185/185/52 186/186/52
f 187/187/53 188/188/53 189/189/53
f 190/190/54 191/191/54 192/192/54
f 193/193/55 194/194/55 195/195/55
f 193/193/55 195/195/55 196/196/55
f 197/197/56 198/198/56 199/199/56
f 200/200/57 201/201/57 202/202/57
f 203/203/58 204/204/58 205/205/58
f 203/203/58 205/205/58 206/206/58
f 207/207/59 208/208/59 209/209/59
f 210/210/60 211/211/60 212/212/60
f 213/213/61 214/214/61 215/215/61
f 213/213/61 215/215/61 216/216/61
f 217/217/62 218/218/62 219/219/62
f 220/220/63 221/221/63 222/222/63
f 223/223/64 224/224/64 225/225/64
f 223/223/64 225/225/64 226/226/64
f 227/227/65 228/228/65 229/229/65
f 230/230/66 231/231/66 232/232/66
f 233/233/67 234/234/67 235/235/67
f 233/233/67 235/235/67 236/236/67
f 237/237/68 238/238/68 239/239/68
f 240/240/69 241/241/69 242/242/69
f 243/243/70 244/244/70 245/245/70
f 243/243/70 245/245/70 246/246/70
f 247/247/71 248/248/71 249/249/71
f 250/250/72 251/251/72 252/252/72
f 253/253/73 254/254/73 255/255/73
f 253/253/73 255/255/73 256/256/73
f 257/257/74 258/258/74 259/259/74
f 260/260/75 261/261/75 262/262/75
f 263/263/76 264/264/76 265/265/76
f 263/263/76 265/265/76 266/266/76
f 267/267/77 268/268/77 269/269/77
f 270/270/78 271/271/78 272/272/78
f 273/273/79 274/274/79 275/275/79
f 273/273/79 275/275/79 276/276/79
f 277/277/80 278/278/80 279/279/80
f 280/280/81 281/281/81 282/282/81
f 283/283/82 284/284/82 285/285/82
f 283/283/82 285/285/82 286/286/82
f 287/287/83 288/288/83 289/289/83
f 290/290/84 291/291/84 292/292/84
f 293/293/85 294/294/85 295/295/85
f 293/293/85 295/295/85 296/296/85
f 297/297/86 298/298/86 299/299/86
f 300/300/87 301/301/87 302/302/87
f 303/303/88 304/304/88 305/305/88
f 303/303/88 305/305/88 306/306/88
f 307/307/89 308/308/89 309/309/89
f 310/310/90 311/311/90 312/312/90
f 313/313/91 314/314/91 315/315/91
f 313/313/91 315/315/91 316/316/91
f 317/317/92 318/318/92 319/319/92
f 320/320/93 321/321/93 322/322/93
f 323/323/94 324/324/94 325/325/94
f 323/323/94 325/325/94 326/326/94
f 327/327/95 328/328/95 329/329/95
f 330/330/96 331/331/96 332/332/96
f 333/333/97 334/334/97 335/335/97
f 333/333/97 335/335/97 336/336/97
f 337/337/98 338/338/98 339/339/98
f 340/340/99 341/341/99 342/342/99
f 343/343/100 344/344/100 345/345/100
f 343/343/100 345/345/100 346/346/100
f 347/347/101 348/348/101 349/349/101
f 350/350/102 351/351/102 352/352/102
f 353/353/103 354/354/103 355/355/103
f 353/353/103 355/355/103 356/356/103
f 357/357/104 358/358/104 359/359/104
f 360/360/105 361/361/105 362/362/105
f 363/363/106 364/364/106 365/365/106
f 363/363/106 365/365/106 366/366/106
f 367/367/107 368/368/107 369/369/107
f 370/370/108 371/371/108 372/372/108
f 373/373/109 374/374/109 375/375/109
f 373/373/109 375/375/109 376/376/109
f 377/377/110 378/378/110 379/379/110
f 380/380/111 381/381/111 382/382/111
f 383/383/112 384/384/112 385/385/112
f 383/383/112 385/385/112 386/386/112
f 387/387/113 388/388/113 389/389/113
f 390/390/114 391/391/114 392/392/114
f 393/393/115 394/394/115 395/395/115
f 393/393/115 395/395/115 396/396/115
f 397/397/116 398/398/116 399/399/116
f 400/400/117 401/401/117 402/402/117
f 403/403/118 404/404/118 405/405/118
f 403/403/118 405/405/118 406/406/118
f 407/407/119 408/408/119 409/409/119
f 410/410/120 411/411/120 412/412/120
f 413/413/121 414/414/121 415/415/121
f 413/413/121 415/415/121 416/416/121
f 417/417/122 418/418/122 419/419/122
f 420/420/123 421/421/123 422/422/123
f 423/423/124 424/424/124 425/425/124
f 423/423/124 425/425/124 426/426/124
f 427/427/125 428/428/125 429/429/125
f 430/430/126 431/431/126 432/432/126
f 433/433/127 434/434/127 435/435/127
f 433/433/127 435/435/127 436/436/127
f 437/437/128 438/438/128 439/439/128
f 440/440/129 441/441/129 442/442/129
f 443/443/130 444/444/130 445/445/130
f 443/443/130 445/445/130 446/446/130
f 447/447/131 448/448/131 449/449/131
f 450/450/132 451/451/132 452/452/132
f 453/453/133 454/454/133 455/455/133
f 453/453/133 455/455/133 456/456/133
f 457/457/134 458/458/134 459/459/134
f 460/460/135 461/461/135 462/462/135
f 463/463/136 464/464/136 465/465/136
f 463/463/136 465/465/136 466/466/136
f 467/467/137 468/468/137 469/469/137
f 470/470/138 471/471/138 472/472/138
f 473/473/139 474/474/139 475/475/139
f 473/473/139 475/475/139 476/476/139
f 477/477/140 478/478/140 479/479/140
f 480/480/141 481/481/141 482/482/141
f 483/483/142 484/484/142 485/485/142
f 483/483/142 485/485/142 486/486/142
f 487/487/143 488/488/143 489/489/143
f 490/490/144 491/491/144 492/492/144
f 493/493/145 494/494/145 495/495/145
f 493/493/145 495/495/145 496/496/145
f 497/497/146 498/498/146 499/499/146
f 500/500/147 501/501/147 502/502/147
f 503/503/148 504/504/148 505/505/148
f 503/503/148 505/505/148 506/506/148
f 507/507/149 508/508/149 509/509/149
f 510/510/150 511/511/150 512/512/150
f 513/513/151 514/514/151 515/515/151
f 513/513/151 515/515/151 516/516/151
f 517/517/152 518/518/152 519/519/152
f 520/520/153 521/521/153 522/522/153
f 523/523/154 524/524/154 525/525/154
f 523/523/154 525/525/154 526/526/154
f 527/527/155 528/528/155 529/529/155
f 530/530/156 531/531/156 532/532/156
f 533/533/157 534/534/157 535/535/157
f 533/533/157 535/535/157 536/536/157
f 537/537/158 538/538/158 539/539/158
f 540/540/159 541/541/159 542/542/159
f 543/543/160 544/544/160 545/545/160
f 543/543/160 545/545/160 546/546/160
f 547/547/161 548/548/161 549/549/161
f 550/550/162 551/551/162 552/552/162
f 553/553/163 554/554/163 555/555/163
f 553/553/163 555/555/163 556/556/163
f 557/557/164 558/558/164 559/559/164
f 560/560/165 561/561/165 562/562/165
f 563/563/166 564/564/166 565/565/166
f 563/563/166 565/565/166 566/566/166
f 567/567/167 568/568/167 569/569/167
f 570/570/168 571/571/168 572/572/168
f 573/573/169 574/574/169 575/575/169
f 573/573/169 575/575/169 576/576/169
f 577/577/170 578/578/170 579/579/170
f 580/580/171 581/581/171 582/582/171
f 583/583/172 584/584/172 585/585/172
f 583/583/172 585/585/172 586/586/172
f 587/587/173 588/588/173 589/589/173
f 590/590/174 591/591/174 592/592/174
f 593/593/175 594/594/175 595/595/175
f 593/593/175 595/595/175 596/596/175
f 597/597/176 598/598/176 599/599/176
f 600/600/177 601/601/177 602/602/177
f 603/603/178 604/604/178 605/605/178
f 603/603/178 605/605/178 606/606/178
f 607/607/179 608/608/179 609/609/179
f 610/610/180 611/611/180 612/612/180
f 613/613/181 614/614/181 615/615/181
f 613/613/181 615/615/181 616/616/181
f 617/617/182 618/618/182 619/619/182
f 620/620/183 621/621/183 622/622/183
f 623/623/184 624/624/184 625/625/184
f 623/623/184 625/625/184 626/626/184
f 627/627/185 628/628/185 629/629/185
f 630/630/186 631/631/186 632/632/186
f 633/633/187 634/634/187 635/635/187
f 633/633/187 635/635/187 636/636/187
f 637/637/188 638/638/188 639/639/188
f 640/640/189 641/641/189 642/642/189
f 643/643/190 644/644/190 645/645/190
f 643/643/190 645/645/190 646/646/190
f 647/647/191 648/648/191 649/649/191
f 650/650/192 651/651/192 652/652/192
f 653/653/193 654/654/193 655/655/193
f 653/653/193 655/655/193 656/656/193
f 657/657/194 658/658/194 659/659/194
f 660/660/195 661/661/195 662/662/195
f 663/663/196 664/664/196 665/665/196
f 663/663/196 665/665/196 666/666/196
f 667/667/197 668/668/197 669/669/197
f 670/670/198 671/671/198 672/672/198
f 673/673/199 674/674/199 675/675/199
f 673/673/199 675/675/199 676/676/199
f 677/677/200 678/678/200 679/679/200
f 680/680/201 681/681/201 682/682/201
f 683/683/202 684/684/202 685/685/202
f 683/683/202 685/685/202 686/686/202
f 687/687/203 688/688/203 689/689/203
f 690/690/204 691/691/204 692/692/204
f 693/693/205 694/694/205 695/695/205
f 693/693/205 695/695/205 696/696/205
f 697/697/206 698/698/206 699/699/206
f 700/700/207 701/701/207 702/702/207
f 703/703/208 704/704/208 705/705/208
f 703/703/208 705/705/208 706/706/208
f 707/707/209 708/708/209 709/709/209
f 710/710/210 711/711/210 712/712/210
f 713/713/211 714/714/211 715/715/211
f 713/713/211 715/715/211 716/716/211
f 717/717/212 718/718/212 719/719/212
f 720/720/213 721/721/213 722/722/213
f 723/723/214 724/724/214 725/725/214
f 723/723/214 725/725/214 726/726/214
f 727/727/215 728/728/215 729/729/215
f 730/730/216 731/731/216 732/732/216
f 733/733/217 734/734/217 735/735/217
f 733/733/217 735/735/217 736/736/217
f 737/737/218 738/738/218 739/739/218
f 740/740/219 741/741/219 742/742/219
f 743/743/220 744/744/220 745/745/220
f 743/743/220 745/745/220 746/746/220
f 747/747/221 748/748/221 749/749/221
f 750/750/222 751/751/222 752/752/222
f 753/753/223 754/754/223 755/755/223
f 753/753/223 755/755/223 756/756/223
f 757/757/224 758/758/224 759/759/224
f 760/760/225 761/761/225 762/762/225
f 763/763/226 764/764/226 765/765/226
f 763/763/226 765/765/226 766/766/226
f 767/767/227 768/768/227 769/769/227
f 770/770/228 771/771/228 772/772/228
f 773/773/229 774/774/229 775/775/229
f 773/773/229 775/775/229 776/776/229
f 777/777/230 778/778/230 779/779/230
f 780/780/231 781/781/231 782/782/231
f 783/783/232 784/784/232 785/785/232
f 783/783/232 785/785/232 786/786/232
f 787/787/233 788/788/233 789/789/233
f 790/790/234 791/791/234 792/792/234
f 793/793/235 794/794/235 795/795/235
f 793/793/235 795/795/235 796/796/235
f 797/797/236 798/798/236 799/799/236
f 800/800/237 801/801/237 802/802/237
f 803/803/238 804/804/238 805/805/238
f 803/803/238 805/805/238 806/806/238
f 807/807/239 808/808/239 809/809/239
f 810/810/240 811/811/240 812/812/240
f 813/813/241 814/814/241 815/815/241
f 813/813/241 815/815/241 816/816/241
f 817/817/242 818/818/242 819/819/242
f 820/820/243 821/821/243 822/822/243
f 823/823/244 824/824/244 825/825/244
f 823/823/244 825/825/244 826/826/244
f 827/827/245 828/828/245 829/829/245
f 830/830/246 831/831/246 832/832/246
f 833/833/247 834/834/247 835/835/247
f 833/833/247 835/835/247 836/836/247
f 837/837/248 838/838/248 839/839/248
f 840/840/249 841/841/249 842/842/249
f 843/843/250 844/844/250 845/845/250
f 843/843/250 845/845/250 846/846/250
f 847/847/251 848/848/251 849/849/251
f 850/850/252 851/851/252 852/852/252
f 853/853/253 854/854/253 855/855/253
f 853/853/253 855/855/253 856/856/253
f 857/857/254 858/858/254 859/859/254
f 860/860/255 861/861/255 862/862/255
f 863/863/256 864/864/256 865/865/256
f 863/863/256 865/865/256 866/866/256
f 867/867/257 868/868/257 869/869/257
f 870/870/258 871/871/258 872/872/258
f 873/873/259 874/874/259 875/875/259
f 873/873/259 875/875/259 876/876/259
f 877/877/260 878/878/260 879/879/260
f 880/880/261 881/881/261 882/882/261
f 883/883/262 884/884/262 885/885/262
f 883/883/262 885/885/262 886/886/262
f 887/887/263 888/888/263 889/889/263
f 890/890/264 891/891/264 892/892/264
f 893/893/265 894/894/265 895/895/265
f 893/893/265 895/895/265 896/896/265
f 897/897/266 898/898/266 899/899/266
f 900/900/267 901/901/267 902/902/267
f 903/903/268 904/904/268 905/905/268
f 903/903/268 905/905/268 906/906/268
f 907/907/269 908/908/269 909/909/269
f 910/910/270 911/911/270 912/912/270
f 913/913/271 914/914/271 915/915/271
f 913/913/271 915/915/271 916/916/271
f 917/917/272 918/918/272 919/919/272
f 920/920/273 921/921/273 922/922/273
f 923/923/274 924/924/274 925/925/274
f 923/923/274 925/925/274 926/926/274
f 927/927/275 928/928/275 929/929/275
f 930/930/276 931/931/276 932/932/276
f 933/933/277 934/934/277 935/935/277
f 933/933/277 935/935/277 936/936/277
f 937/937/278 938/938/278 939/939/278
f 940/940/279 941/941/279 942/942/279
f 943/943/280 944/944/280 945/945/280
f 943/943/280 945/945/280 946/946/280
f 947/947/281 948/948/281 949/949/281
f 950/950/282 951/951/282 952/952/282
f 953/953/283 954/954/283 955/955/283
f 953/953/283 955/955/283 956/956/283
f 957/957/284 958/958/284 959/959/284
f 960/960/285 961/961/285 962/962/285
f 963/963/286 964/964/286 965/965/286
f 963/963/286 965/965/286 966/966/286
f 967/967/287 968/968/287 969/969/287
f 970/970/288 971/971/288 972/972/288
