# Auto-generated – ocean simulation city asset
mtllib streetlight.mtl

v  0.2800 0.0000 0.0000
v  0.2800 0.3000 0.0000
v  0.1980 0.3000 0.1980
v  0.1980 0.0000 0.1980
v  0.2800 0.0000 0.0000
v  0.1980 0.0000 0.1980
v  0.0000 0.0000 0.0000
v  0.2800 0.3000 0.0000
v  0.0000 0.3000 0.0000
v  0.1980 0.3000 0.1980
v  0.1980 0.0000 0.1980
v  0.1980 0.3000 0.1980
v  0.0000 0.3000 0.2800
v  0.0000 0.0000 0.2800
v  0.1980 0.0000 0.1980
v  0.0000 0.0000 0.2800
v  0.0000 0.0000 0.0000
v  0.1980 0.3000 0.1980
v  0.0000 0.3000 0.0000
v  0.0000 0.3000 0.2800
v  0.0000 0.0000 0.2800
v  0.0000 0.3000 0.2800
v  -0.1980 0.3000 0.1980
v  -0.1980 0.0000 0.1980
v  0.0000 0.0000 0.2800
v  -0.1980 0.0000 0.1980
v  0.0000 0.0000 0.0000
v  0.0000 0.3000 0.2800
v  0.0000 0.3000 0.0000
v  -0.1980 0.3000 0.1980
v  -0.1980 0.0000 0.1980
v  -0.1980 0.3000 0.1980
v  -0.2800 0.3000 0.0000
v  -0.2800 0.0000 0.0000
v  -0.1980 0.0000 0.1980
v  -0.2800 0.0000 0.0000
v  0.0000 0.0000 0.0000
v  -0.1980 0.3000 0.1980
v  0.0000 0.3000 0.0000
v  -0.2800 0.3000 0.0000
v  -0.2800 0.0000 0.0000
v  -0.2800 0.3000 0.0000
v  -0.1980 0.3000 -0.1980
v  -0.1980 0.0000 -0.1980
v  -0.2800 0.0000 0.0000
v  -0.1980 0.0000 -0.1980
v  0.0000 0.0000 0.0000
v  -0.2800 0.3000 0.0000
v  0.0000 0.3000 0.0000
v  -0.1980 0.3000 -0.1980
v  -0.1980 0.0000 -0.1980
v  -0.1980 0.3000 -0.1980
v  -0.0000 0.3000 -0.2800
v  -0.0000 0.0000 -0.2800
v  -0.1980 0.0000 -0.1980
v  -0.0000 0.0000 -0.2800
v  0.0000 0.0000 0.0000
v  -0.1980 0.3000 -0.1980
v  0.0000 0.3000 0.0000
v  -0.0000 0.3000 -0.2800
v  -0.0000 0.0000 -0.2800
v  -0.0000 0.3000 -0.2800
v  0.1980 0.3000 -0.1980
v  0.1980 0.0000 -0.1980
v  -0.0000 0.0000 -0.2800
v  0.1980 0.0000 -0.1980
v  0.0000 0.0000 0.0000
v  -0.0000 0.3000 -0.2800
v  0.0000 0.3000 0.0000
v  0.1980 0.3000 -0.1980
v  0.1980 0.0000 -0.1980
v  0.1980 0.3000 -0.1980
v  0.2800 0.3000 0.0000
v  0.2800 0.0000 0.0000
v  0.1980 0.0000 -0.1980
v  0.2800 0.0000 0.0000
v  0.0000 0.0000 0.0000
v  0.1980 0.3000 -0.1980
v  0.0000 0.3000 0.0000
v  0.2800 0.3000 0.0000
v  0.1000 0.3000 0.0000
v  0.1000 5.0000 0.0000
v  0.0707 5.0000 0.0707
v  0.0707 0.3000 0.0707
v  0.1000 0.3000 0.0000
v  0.0707 0.3000 0.0707
v  0.0000 0.3000 0.0000
v  0.1000 5.0000 0.0000
v  0.0000 5.0000 0.0000
v  0.0707 5.0000 0.0707
v  0.0707 0.3000 0.0707
v  0.0707 5.0000 0.0707
v  0.0000 5.0000 0.1000
v  0.0000 0.3000 0.1000
v  0.0707 0.3000 0.0707
v  0.0000 0.3000 0.1000
v  0.0000 0.3000 0.0000
v  0.0707 5.0000 0.0707
v  0.0000 5.0000 0.0000
v  0.0000 5.0000 0.1000
v  0.0000 0.3000 0.1000
v  0.0000 5.0000 0.1000
v  -0.0707 5.0000 0.0707
v  -0.0707 0.3000 0.0707
v  0.0000 0.3000 0.1000
v  -0.0707 0.3000 0.0707
v  0.0000 0.3000 0.0000
v  0.0000 5.0000 0.1000
v  0.0000 5.0000 0.0000
v  -0.0707 5.0000 0.0707
v  -0.0707 0.3000 0.0707
v  -0.0707 5.0000 0.0707
v  -0.1000 5.0000 0.0000
v  -0.1000 0.3000 0.0000
v  -0.0707 0.3000 0.0707
v  -0.1000 0.3000 0.0000
v  0.0000 0.3000 0.0000
v  -0.0707 5.0000 0.0707
v  0.0000 5.0000 0.0000
v  -0.1000 5.0000 0.0000
v  -0.1000 0.3000 0.0000
v  -0.1000 5.0000 0.0000
v  -0.0707 5.0000 -0.0707
v  -0.0707 0.3000 -0.0707
v  -0.1000 0.3000 0.0000
v  -0.0707 0.3000 -0.0707
v  0.0000 0.3000 0.0000
v  -0.1000 5.0000 0.0000
v  0.0000 5.0000 0.0000
v  -0.0707 5.0000 -0.0707
v  -0.0707 0.3000 -0.0707
v  -0.0707 5.0000 -0.0707
v  -0.0000 5.0000 -0.1000
v  -0.0000 0.3000 -0.1000
v  -0.0707 0.3000 -0.0707
v  -0.0000 0.3000 -0.1000
v  0.0000 0.3000 0.0000
v  -0.0707 5.0000 -0.0707
v  0.0000 5.0000 0.0000
v  -0.0000 5.0000 -0.1000
v  -0.0000 0.3000 -0.1000
v  -0.0000 5.0000 -0.1000
v  0.0707 5.0000 -0.0707
v  0.0707 0.3000 -0.0707
v  -0.0000 0.3000 -0.1000
v  0.0707 0.3000 -0.0707
v  0.0000 0.3000 0.0000
v  -0.0000 5.0000 -0.1000
v  0.0000 5.0000 0.0000
v  0.0707 5.0000 -0.0707
v  0.0707 0.3000 -0.0707
v  0.0707 5.0000 -0.0707
v  0.1000 5.0000 0.0000
v  0.1000 0.3000 0.0000
v  0.0707 0.3000 -0.0707
v  0.1000 0.3000 0.0000
v  0.0000 0.3000 0.0000
v  0.0707 5.0000 -0.0707
v  0.0000 5.0000 0.0000
v  0.1000 5.0000 0.0000
v  0.0000 4.8000 -0.1000
v  0.0000 5.0200 -0.1000
v  1.8000 5.0200 -0.1000
v  1.8000 4.8000 -0.1000
v  1.8000 4.8000 0.1000
v  1.8000 5.0200 0.1000
v  0.0000 5.0200 0.1000
v  0.0000 4.8000 0.1000
v  0.0000 4.8000 0.1000
v  0.0000 5.0200 0.1000
v  0.0000 5.0200 -0.1000
v  0.0000 4.8000 -0.1000
v  1.8000 4.8000 -0.1000
v  1.8000 5.0200 -0.1000
v  1.8000 5.0200 0.1000
v  1.8000 4.8000 0.1000
v  0.0000 4.8000 0.1000
v  0.0000 4.8000 -0.1000
v  1.8000 4.8000 -0.1000
v  1.8000 4.8000 0.1000
v  0.0000 5.0200 -0.1000
v  0.0000 5.0200 0.1000
v  1.8000 5.0200 0.1000
v  1.8000 5.0200 -0.1000
v  1.4000 4.5000 -0.2200
v  1.4000 4.8200 -0.2200
v  2.0500 4.8200 -0.2200
v  2.0500 4.5000 -0.2200
v  2.0500 4.5000 0.2200
v  2.0500 4.8200 0.2200
v  1.4000 4.8200 0.2200
v  1.4000 4.5000 0.2200
v  1.4000 4.5000 0.2200
v  1.4000 4.8200 0.2200
v  1.4000 4.8200 -0.2200
v  1.4000 4.5000 -0.2200
v  2.0500 4.5000 -0.2200
v  2.0500 4.8200 -0.2200
v  2.0500 4.8200 0.2200
v  2.0500 4.5000 0.2200
v  1.4000 4.5000 0.2200
v  1.4000 4.5000 -0.2200
v  2.0500 4.5000 -0.2200
v  2.0500 4.5000 0.2200
v  1.4000 4.8200 -0.2200
v  1.4000 4.8200 0.2200
v  2.0500 4.8200 0.2200
v  2.0500 4.8200 -0.2200

vt 0.0000 0.0000
vt 0.0000 1.0000
vt 0.1250 1.0000
vt 0.1250 0.0000
vt 1.0000 0.5000
vt 0.8536 0.8536
vt 0.5000 0.5000
vt 1.0000 0.5000
vt 0.5000 0.5000
vt 0.8536 0.8536
vt 0.1250 0.0000
vt 0.1250 1.0000
vt 0.2500 1.0000
vt 0.2500 0.0000
vt 0.8536 0.8536
vt 0.5000 1.0000
vt 0.5000 0.5000
vt 0.8536 0.8536
vt 0.5000 0.5000
vt 0.5000 1.0000
vt 0.2500 0.0000
vt 0.2500 1.0000
vt 0.3750 1.0000
vt 0.3750 0.0000
vt 0.5000 1.0000
vt 0.1464 0.8536
vt 0.5000 0.5000
vt 0.5000 1.0000
vt 0.5000 0.5000
vt 0.1464 0.8536
vt 0.3750 0.0000
vt 0.3750 1.0000
vt 0.5000 1.0000
vt 0.5000 0.0000
vt 0.1464 0.8536
vt 0.0000 0.5000
vt 0.5000 0.5000
vt 0.1464 0.8536
vt 0.5000 0.5000
vt 0.0000 0.5000
vt 0.5000 0.0000
vt 0.5000 1.0000
vt 0.6250 1.0000
vt 0.6250 0.0000
vt 0.0000 0.5000
vt 0.1464 0.1464
vt 0.5000 0.5000
vt 0.0000 0.5000
vt 0.5000 0.5000
vt 0.1464 0.1464
vt 0.6250 0.0000
vt 0.6250 1.0000
vt 0.7500 1.0000
vt 0.7500 0.0000
vt 0.1464 0.1464
vt 0.5000 0.0000
vt 0.5000 0.5000
vt 0.1464 0.1464
vt 0.5000 0.5000
vt 0.5000 0.0000
vt 0.7500 0.0000
vt 0.7500 1.0000
vt 0.8750 1.0000
vt 0.8750 0.0000
vt 0.5000 0.0000
vt 0.8536 0.1464
vt 0.5000 0.5000
vt 0.5000 0.0000
vt 0.5000 0.5000
vt 0.8536 0.1464
vt 0.8750 0.0000
vt 0.8750 1.0000
vt 1.0000 1.0000
vt 1.0000 0.0000
vt 0.8536 0.1464
vt 1.0000 0.5000
vt 0.5000 0.5000
vt 0.8536 0.1464
vt 0.5000 0.5000
vt 1.0000 0.5000
vt 0.0000 0.0000
vt 0.0000 1.0000
vt 0.1250 1.0000
vt 0.1250 0.0000
vt 1.0000 0.5000
vt 0.8536 0.8536
vt 0.5000 0.5000
vt 1.0000 0.5000
vt 0.5000 0.5000
vt 0.8536 0.8536
vt 0.1250 0.0000
vt 0.1250 1.0000
vt 0.2500 1.0000
vt 0.2500 0.0000
vt 0.8536 0.8536
vt 0.5000 1.0000
vt 0.5000 0.5000
vt 0.8536 0.8536
vt 0.5000 0.5000
vt 0.5000 1.0000
vt 0.2500 0.0000
vt 0.2500 1.0000
vt 0.3750 1.0000
vt 0.3750 0.0000
vt 0.5000 1.0000
vt 0.1464 0.8536
vt 0.5000 0.5000
vt 0.5000 1.0000
vt 0.5000 0.5000
vt 0.1464 0.8536
vt 0.3750 0.0000
vt 0.3750 1.0000
vt 0.5000 1.0000
vt 0.5000 0.0000
vt 0.1464 0.8536
vt 0.0000 0.5000
vt 0.5000 0.5000
vt 0.1464 0.8536
vt 0.5000 0.5000
vt 0.0000 0.5000
vt 0.5000 0.0000
vt 0.5000 1.0000
vt 0.6250 1.0000
vt 0.6250 0.0000
vt 0.0000 0.5000
vt 0.1464 0.1464
vt 0.5000 0.5000
vt 0.0000 0.5000
vt 0.5000 0.5000
vt 0.1464 0.1464
vt 0.6250 0.0000
vt 0.6250 1.0000
vt 0.7500 1.0000
vt 0.7500 0.0000
vt 0.1464 0.1464
vt 0.5000 0.0000
vt 0.5000 0.5000
vt 0.1464 0.1464
vt 0.5000 0.5000
vt 0.5000 0.0000
vt 0.7500 0.0000
vt 0.7500 1.0000
vt 0.8750 1.0000
vt 0.8750 0.0000
vt 0.5000 0.0000
vt 0.8536 0.1464
vt 0.5000 0.5000
vt 0.5000 0.0000
vt 0.5000 0.5000
vt 0.8536 0.1464
vt 0.8750 0.0000
vt 0.8750 1.0000
vt 1.0000 1.0000
vt 1.0000 0.0000
vt 0.8536 0.1464
vt 1.0000 0.5000
vt 0.5000 0.5000
vt 0.8536 0.1464
vt 0.5000 0.5000
vt 1.0000 0.5000
vt 0.0000 0.0000
vt 0.0000 1.0000
vt 1.0000 1.0000
vt 1.0000 0.0000
vt 0.0000 0.0000
vt 0.0000 1.0000
vt 1.0000 1.0000
vt 1.0000 0.0000
vt 0.0000 0.0000
vt 0.0000 1.0000
vt 1.0000 1.0000
vt 1.0000 0.0000
vt 0.0000 0.0000
vt 0.0000 1.0000
vt 1.0000 1.0000
vt 1.0000 0.0000
vt 0.0000 0.0000
vt 0.0000 1.0000
vt 1.0000 1.0000
vt 1.0000 0.0000
vt 0.0000 0.0000
vt 0.0000 1.0000
vt 1.0000 1.0000
vt 1.0000 0.0000
vt 0.0000 0.0000
vt 0.0000 1.0000
vt 1.0000 1.0000
vt 1.0000 0.0000
vt 0.0000 0.0000
vt 0.0000 1.0000
vt 1.0000 1.0000
vt 1.0000 0.0000
vt 0.0000 0.0000
vt 0.0000 1.0000
vt 1.0000 1.0000
vt 1.0000 0.0000
vt 0.0000 0.0000
vt 0.0000 1.0000
vt 1.0000 1.0000
vt 1.0000 0.0000
vt 0.0000 0.0000
vt 0.0000 1.0000
vt 1.0000 1.0000
vt 1.0000 0.0000
vt 0.0000 0.0000
vt 0.0000 1.0000
vt 1.0000 1.0000
vt 1.0000 0.0000

vn 0.9239 0.0000 0.3827
vn 0.0000 -1.0000 0.0000
vn 0.0000 1.0000 0.0000
vn 0.3827 0.0000 0.9239
vn 0.0000 -1.0000 0.0000
vn 0.0000 1.0000 0.0000
vn -0.3827 0.0000 0.9239
vn 0.0000 -1.0000 0.0000
vn 0.0000 1.0000 0.0000
vn -0.9239 0.0000 0.3827
vn 0.0000 -1.0000 0.0000
vn 0.0000 1.0000 0.0000
vn -0.9239 0.0000 -0.3827
vn 0.0000 -1.0000 0.0000
vn 0.0000 1.0000 0.0000
vn -0.3827 0.0000 -0.9239
vn 0.0000 -1.0000 0.0000
vn 0.0000 1.0000 0.0000
vn 0.3827 0.0000 -0.9239
vn 0.0000 -1.0000 0.0000
vn 0.0000 1.0000 0.0000
vn -0.9239 0.0000 0.3827
vn 0.0000 -1.0000 0.0000
vn 0.0000 1.0000 0.0000
vn 0.9239 0.0000 0.3827
vn 0.0000 -1.0000 0.0000
vn 0.0000 1.0000 0.0000
vn 0.3827 0.0000 0.9239
vn 0.0000 -1.0000 0.0000
vn 0.0000 1.0000 0.0000
vn -0.3827 0.0000 0.9239
vn 0.0000 -1.0000 0.0000
vn 0.0000 1.0000 0.0000
vn -0.9239 0.0000 0.3827
vn 0.0000 -1.0000 0.0000
vn 0.0000 1.0000 0.0000
vn -0.9239 0.0000 -0.3827
vn 0.0000 -1.0000 0.0000
vn 0.0000 1.0000 0.0000
vn -0.3827 0.0000 -0.9239
vn 0.0000 -1.0000 0.0000
vn 0.0000 1.0000 0.0000
vn 0.3827 0.0000 -0.9239
vn 0.0000 -1.0000 0.0000
vn 0.0000 1.0000 0.0000
vn -0.9239 0.0000 0.3827
vn 0.0000 -1.0000 0.0000
vn 0.0000 1.0000 0.0000
vn 0.0000 0.0000 -1.0000
vn 0.0000 0.0000 1.0000
vn -1.0000 0.0000 0.0000
vn 1.0000 0.0000 0.0000
vn 0.0000 -1.0000 0.0000
vn 0.0000 1.0000 0.0000
vn 0.0000 0.0000 -1.0000
vn 0.0000 0.0000 1.0000
vn -1.0000 0.0000 0.0000
vn 1.0000 0.0000 0.0000
vn 0.0000 -1.0000 0.0000
vn 0.0000 1.0000 0.0000

usemtl metal
f 1/1/1 2/2/1 3/3/1
f 1/1/1 3/3/1 4/4/1
f 5/5/2 6/6/2 7/7/2
f 8/8/3 9/9/3 10/10/3
f 11/11/4 12/12/4 13/13/4
f 11/11/4 13/13/4 14/14/4
f 15/15/5 16/16/5 17/17/5
f 18/18/6 19/19/6 20/20/6
f 21/21/7 22/22/7 23/23/7
f 21/21/7 23/23/7 24/24/7
f 25/25/8 26/26/8 27/27/8
f 28/28/9 29/29/9 30/30/9
f 31/31/10 32/32/10 33/33/10
f 31/31/10 33/33/10 34/34/10
f 35/35/11 36/36/11 37/37/11
f 38/38/12 39/39/12 40/40/12
f 41/41/13 42/42/13 43/43/13
f 41/41/13 43/43/13 44/44/13
f 45/45/14 46/46/14 47/47/14
f 48/48/15 49/49/15 50/50/15
f 51/51/16 52/52/16 53/53/16
f 51/51/16 53/53/16 54/54/16
f 55/55/17 56/56/17 57/57/17
f 58/58/18 59/59/18 60/60/18
f 61/61/19 62/62/19 63/63/19
f 61/61/19 63/63/19 64/64/19
f 65/65/20 66/66/20 67/67/20
f 68/68/21 69/69/21 70/70/21
f 71/71/22 72/72/22 73/73/22
f 71/71/22 73/73/22 74/74/22
f 75/75/23 76/76/23 77/77/23
f 78/78/24 79/79/24 80/80/24
f 81/81/25 82/82/25 83/83/25
f 81/81/25 83/83/25 84/84/25
f 85/85/26 86/86/26 87/87/26
f 88/88/27 89/89/27 90/90/27
f 91/91/28 92/92/28 93/93/28
f 91/91/28 93/93/28 94/94/28
f 95/95/29 96/96/29 97/97/29
f 98/98/30 99/99/30 100/100/30
f 101/101/31 102/102/31 103/103/31
f 101/101/31 103/103/31 104/104/31
f 105/105/32 106/106/32 107/107/32
f 108/108/33 109/109/33 110/110/33
f 111/111/34 112/112/34 113/113/34
f 111/111/34 113/113/34 114/114/34
f 115/115/35 116/116/35 117/117/35
f 118/118/36 119/119/36 120/120/36
f 121/121/37 122/122/37 123/123/37
f 121/121/37 123/123/37 124/124/37
f 125/125/38 126/126/38 127/127/38
f 128/128/39 129/129/39 130/130/39
f 131/131/40 132/132/40 133/133/40
f 131/131/40 133/133/40 134/134/40
f 135/135/41 136/136/41 137/137/41
f 138/138/42 139/139/42 140/140/42
f 141/141/43 142/142/43 143/143/43
f 141/141/43 143/143/43 144/144/43
f 145/145/44 146/146/44 147/147/44
f 148/148/45 149/149/45 150/150/45
f 151/151/46 152/152/46 153/153/46
f 151/151/46 153/153/46 154/154/46
f 155/155/47 156/156/47 157/157/47
f 158/158/48 159/159/48 160/160/48
f 161/161/49 162/162/49 163/163/49
f 161/161/49 163/163/49 164/164/49
f 165/165/50 166/166/50 167/167/50
f 165/165/50 167/167/50 168/168/50
f 169/169/51 170/170/51 171/171/51
f 169/169/51 171/171/51 172/172/51
f 173/173/52 174/174/52 175/175/52
f 173/173/52 175/175/52 176/176/52
f 177/177/53 178/178/53 179/179/53
f 177/177/53 179/179/53 180/180/53
f 181/181/54 182/182/54 183/183/54
f 181/181/54 183/183/54 184/184/54
usemtl lamp
f 185/185/55 186/186/55 187/187/55
f 185/185/55 187/187/55 188/188/55
f 189/189/56 190/190/56 191/191/56
f 189/189/56 191/191/56 192/192/56
f 193/193/57 194/194/57 195/195/57
f 193/193/57 195/195/57 196/196/57
f 197/197/58 198/198/58 199/199/58
f 197/197/58 199/199/58 200/200/58
f 201/201/59 202/202/59 203/203/59
f 201/201/59 203/203/59 204/204/59
f 205/205/60 206/206/60 207/207/60
f 205/205/60 207/207/60 208/208/60
