# Auto-generated – ocean simulation city asset
mtllib tree.mtl

v  0.3000 0.0000 0.0000
v  0.3000 1.8000 0.0000
v  0.2121 1.8000 0.2121
v  0.2121 0.0000 0.2121
v  0.3000 0.0000 0.0000
v  0.2121 0.0000 0.2121
v  0.0000 0.0000 0.0000
v  0.3000 1.8000 0.0000
v  0.0000 1.8000 0.0000
v  0.2121 1.8000 0.2121
v  0.2121 0.0000 0.2121
v  0.2121 1.8000 0.2121
v  0.0000 1.8000 0.3000
v  0.0000 0.0000 0.3000
v  0.2121 0.0000 0.2121
v  0.0000 0.0000 0.3000
v  0.0000 0.0000 0.0000
v  0.2121 1.8000 0.2121
v  0.0000 1.8000 0.0000
v  0.0000 1.8000 0.3000
v  0.0000 0.0000 0.3000
v  0.0000 1.8000 0.3000
v  -0.2121 1.8000 0.2121
v  -0.2121 0.0000 0.2121
v  0.0000 0.0000 0.3000
v  -0.2121 0.0000 0.2121
v  0.0000 0.0000 0.0000
v  0.0000 1.8000 0.3000
v  0.0000 1.8000 0.0000
v  -0.2121 1.8000 0.2121
v  -0.2121 0.0000 0.2121
v  -0.2121 1.8000 0.2121
v  -0.3000 1.8000 0.0000
v  -0.3000 0.0000 0.0000
v  -0.2121 0.0000 0.2121
v  -0.3000 0.0000 0.0000
v  0.0000 0.0000 0.0000
v  -0.2121 1.8000 0.2121
v  0.0000 1.8000 0.0000
v  -0.3000 1.8000 0.0000
v  -0.3000 0.0000 0.0000
v  -0.3000 1.8000 0.0000
v  -0.2121 1.8000 -0.2121
v  -0.2121 0.0000 -0.2121
v  -0.3000 0.0000 0.0000
v  -0.2121 0.0000 -0.2121
v  0.0000 0.0000 0.0000
v  -0.3000 1.8000 0.0000
v  0.0000 1.8000 0.0000
v  -0.2121 1.8000 -0.2121
v  -0.2121 0.0000 -0.2121
v  -0.2121 1.8000 -0.2121
v  -0.0000 1.8000 -0.3000
v  -0.0000 0.0000 -0.3000
v  -0.2121 0.0000 -0.2121
v  -0.0000 0.0000 -0.3000
v  0.0000 0.0000 0.0000
v  -0.2121 1.8000 -0.2121
v  0.0000 1.8000 0.0000
v  -0.0000 1.8000 -0.3000
v  -0.0000 0.0000 -0.3000
v  -0.0000 1.8000 -0.3000
v  0.2121 1.8000 -0.2121
v  0.2121 0.0000 -0.2121
v  -0.0000 0.0000 -0.3000
v  0.2121 0.0000 -0.2121
v  0.0000 0.0000 0.0000
v  -0.0000 1.8000 -0.3000
v  0.0000 1.8000 0.0000
v  0.2121 1.8000 -0.2121
v  0.2121 0.0000 -0.2121
v  0.2121 1.8000 -0.2121
v  0.3000 1.8000 0.0000
v  0.3000 0.0000 0.0000
v  0.2121 0.0000 -0.2121
v  0.3000 0.0000 0.0000
v  0.0000 0.0000 0.0000
v  0.2121 1.8000 -0.2121
v  0.0000 1.8000 0.0000
v  0.3000 1.8000 0.0000
v  2.5000 1.4000 0.0000
v  0.0000 4.0000 0.0000
v  2.1651 1.4000 1.2500
v  2.5000 1.4000 0.0000
v  2.1651 1.4000 1.2500
v  0.0000 1.4000 0.0000
v  2.1651 1.4000 1.2500
v  0.0000 4.0000 0.0000
v  1.2500 1.4000 2.1651
v  2.1651 1.4000 1.2500
v  1.2500 1.4000 2.1651
v  0.0000 1.4000 0.0000
v  1.2500 1.4000 2.1651
v  0.0000 4.0000 0.0000
v  0.0000 1.4000 2.5000
v  1.2500 1.4000 2.1651
v  0.0000 1.4000 2.5000
v  0.0000 1.4000 0.0000
v  0.0000 1.4000 2.5000
v  0.0000 4.0000 0.0000
v  -1.2500 1.4000 2.1651
v  0.0000 1.4000 2.5000
v  -1.2500 1.4000 2.1651
v  0.0000 1.4000 0.0000
v  -1.2500 1.4000 2.1651
v  0.0000 4.0000 0.0000
v  -2.1651 1.4000 1.2500
v  -1.2500 1.4000 2.1651
v  -2.1651 1.4000 1.2500
v  0.0000 1.4000 0.0000
v  -2.1651 1.4000 1.2500
v  0.0000 4.0000 0.0000
v  -2.5000 1.4000 0.0000
v  -2.1651 1.4000 1.2500
v  -2.5000 1.4000 0.0000
v  0.0000 1.4000 0.0000
v  -2.5000 1.4000 0.0000
v  0.0000 4.0000 0.0000
v  -2.1651 1.4000 -1.2500
v  -2.5000 1.4000 0.0000
v  -2.1651 1.4000 -1.2500
v  0.0000 1.4000 0.0000
v  -2.1651 1.4000 -1.2500
v  0.0000 4.0000 0.0000
v  -1.2500 1.4000 -2.1651
v  -2.1651 1.4000 -1.2500
v  -1.2500 1.4000 -2.1651
v  0.0000 1.4000 0.0000
v  -1.2500 1.4000 -2.1651
v  0.0000 4.0000 0.0000
v  -0.0000 1.4000 -2.5000
v  -1.2500 1.4000 -2.1651
v  -0.0000 1.4000 -2.5000
v  0.0000 1.4000 0.0000
v  -0.0000 1.4000 -2.5000
v  0.0000 4.0000 0.0000
v  1.2500 1.4000 -2.1651
v  -0.0000 1.4000 -2.5000
v  1.2500 1.4000 -2.1651
v  0.0000 1.4000 0.0000
v  1.2500 1.4000 -2.1651
v  0.0000 4.0000 0.0000
v  2.1651 1.4000 -1.2500
v  1.2500 1.4000 -2.1651
v  2.1651 1.4000 -1.2500
v  0.0000 1.4000 0.0000
v  2.1651 1.4000 -1.2500
v  0.0000 4.0000 0.0000
v  2.5000 1.4000 0.0000
v  2.1651 1.4000 -1.2500
v  2.5000 1.4000 0.0000
v  0.0000 1.4000 0.0000
v  1.7000 3.2000 0.0000
v  0.0000 5.4000 0.0000
v  1.4722 3.2000 0.8500
v  1.7000 3.2000 0.0000
v  1.4722 3.2000 0.8500
v  0.0000 3.2000 0.0000
v  1.4722 3.2000 0.8500
v  0.0000 5.4000 0.0000
v  0.8500 3.2000 1.4722
v  1.4722 3.2000 0.8500
v  0.8500 3.2000 1.4722
v  0.0000 3.2000 0.0000
v  0.8500 3.2000 1.4722
v  0.0000 5.4000 0.0000
v  0.0000 3.2000 1.7000
v  0.8500 3.2000 1.4722
v  0.0000 3.2000 1.7000
v  0.0000 3.2000 0.0000
v  0.0000 3.2000 1.7000
v  0.0000 5.4000 0.0000
v  -0.8500 3.2000 1.4722
v  0.0000 3.2000 1.7000
v  -0.8500 3.2000 1.4722
v  0.0000 3.2000 0.0000
v  -0.8500 3.2000 1.4722
v  0.0000 5.4000 0.0000
v  -1.4722 3.2000 0.8500
v  -0.8500 3.2000 1.4722
v  -1.4722 3.2000 0.8500
v  0.0000 3.2000 0.0000
v  -1.4722 3.2000 0.8500
v  0.0000 5.4000 0.0000
v  -1.7000 3.2000 0.0000
v  -1.4722 3.2000 0.8500
v  -1.7000 3.2000 0.0000
v  0.0000 3.2000 0.0000
v  -1.7000 3.2000 0.0000
v  0.0000 5.4000 0.0000
v  -1.4722 3.2000 -0.8500
v  -1.7000 3.2000 0.0000
v  -1.4722 3.2000 -0.8500
v  0.0000 3.2000 0.0000
v  -1.4722 3.2000 -0.8500
v  0.0000 5.4000 0.0000
v  -0.8500 3.2000 -1.4722
v  -1.4722 3.2000 -0.8500
v  -0.8500 3.2000 -1.4722
v  0.0000 3.2000 0.0000
v  -0.8500 3.2000 -1.4722
v  0.0000 5.4000 0.0000
v  -0.0000 3.2000 -1.7000
v  -0.8500 3.2000 -1.4722
v  -0.0000 3.2000 -1.7000
v  0.0000 3.2000 0.0000
v  -0.0000 3.2000 -1.7000
v  0.0000 5.4000 0.0000
v  0.8500 3.2000 -1.4722
v  -0.0000 3.2000 -1.7000
v  0.8500 3.2000 -1.4722
v  0.0000 3.2000 0.0000
v  0.8500 3.2000 -1.4722
v  0.0000 5.4000 0.0000
v  1.4722 3.2000 -0.8500
v  0.8500 3.2000 -1.4722
v  1.4722 3.2000 -0.8500
v  0.0000 3.2000 0.0000
v  1.4722 3.2000 -0.8500
v  0.0000 5.4000 0.0000
v  1.7000 3.2000 0.0000
v  1.4722 3.2000 -0.8500
v  1.7000 3.2000 0.0000
v  0.0000 3.2000 0.0000

vt 0.0000 0.0000
vt 0.0000 1.0000
vt 0.1250 1.0000
vt 0.1250 0.0000
vt 1.0000 0.5000
vt 0.8536 0.8536
vt 0.5000 0.5000
vt 1.0000 0.5000
vt 0.5000 0.5000
vt 0.8536 0.8536
vt 0.1250 0.0000
vt 0.1250 1.0000
vt 0.2500 1.0000
vt 0.2500 0.0000
vt 0.8536 0.8536
vt 0.5000 1.0000
vt 0.5000 0.5000
vt 0.8536 0.8536
vt 0.5000 0.5000
vt 0.5000 1.0000
vt 0.2500 0.0000
vt 0.2500 1.0000
vt 0.3750 1.0000
vt 0.3750 0.0000
vt 0.5000 1.0000
vt 0.1464 0.8536
vt 0.5000 0.5000
vt 0.5000 1.0000
vt 0.5000 0.5000
vt 0.1464 0.8536
vt 0.3750 0.0000
vt 0.3750 1.0000
vt 0.5000 1.0000
vt 0.5000 0.0000
vt 0.1464 0.8536
vt 0.0000 0.5000
vt 0.5000 0.5000
vt 0.1464 0.8536
vt 0.5000 0.5000
vt 0.0000 0.5000
vt 0.5000 0.0000
vt 0.5000 1.0000
vt 0.6250 1.0000
vt 0.6250 0.0000
vt 0.0000 0.5000
vt 0.1464 0.1464
vt 0.5000 0.5000
vt 0.0000 0.5000
vt 0.5000 0.5000
vt 0.1464 0.1464
vt 0.6250 0.0000
vt 0.6250 1.0000
vt 0.7500 1.0000
vt 0.7500 0.0000
vt 0.1464 0.1464
vt 0.5000 0.0000
vt 0.5000 0.5000
vt 0.1464 0.1464
vt 0.5000 0.5000
vt 0.5000 0.0000
vt 0.7500 0.0000
vt 0.7500 1.0000
vt 0.8750 1.0000
vt 0.8750 0.0000
vt 0.5000 0.0000
vt 0.8536 0.1464
vt 0.5000 0.5000
vt 0.5000 0.0000
vt 0.5000 0.5000
vt 0.8536 0.1464
vt 0.8750 0.0000
vt 0.8750 1.0000
vt 1.0000 1.0000
vt 1.0000 0.0000
vt 0.8536 0.1464
vt 1.0000 0.5000
vt 0.5000 0.5000
vt 0.8536 0.1464
vt 0.5000 0.5000
vt 1.0000 0.5000
vt 0.0000 0.0000
vt 0.5000 1.0000
vt 0.0833 0.0000
vt 1.0000 0.5000
vt 0.9330 0.7500
vt 0.5000 0.5000
vt 0.0833 0.0000
vt 0.5417 1.0000
vt 0.1667 0.0000
vt 0.9330 0.7500
vt 0.7500 0.9330
vt 0.5000 0.5000
vt 0.1667 0.0000
vt 0.5833 1.0000
vt 0.2500 0.0000
vt 0.7500 0.9330
vt 0.5000 1.0000
vt 0.5000 0.5000
vt 0.2500 0.0000
vt 0.6250 1.0000
vt 0.3333 0.0000
vt 0.5000 1.0000
vt 0.2500 0.9330
vt 0.5000 0.5000
vt 0.3333 0.0000
vt 0.6667 1.0000
vt 0.4167 0.0000
vt 0.2500 0.9330
vt 0.0670 0.7500
vt 0.5000 0.5000
vt 0.4167 0.0000
vt 0.7083 1.0000
vt 0.5000 0.0000
vt 0.0670 0.7500
vt 0.0000 0.5000
vt 0.5000 0.5000
vt 0.5000 0.0000
vt 0.7500 1.0000
vt 0.5833 0.0000
vt 0.0000 0.5000
vt 0.0670 0.2500
vt 0.5000 0.5000
vt 0.5833 0.0000
vt 0.7917 1.0000
vt 0.6667 0.0000
vt 0.0670 0.2500
vt 0.2500 0.0670
vt 0.5000 0.5000
vt 0.6667 0.0000
vt 0.8333 1.0000
vt 0.7500 0.0000
vt 0.2500 0.0670
vt 0.5000 0.0000
vt 0.5000 0.5000
vt 0.7500 0.0000
vt 0.8750 1.0000
vt 0.8333 0.0000
vt 0.5000 0.0000
vt 0.7500 0.0670
vt 0.5000 0.5000
vt 0.8333 0.0000
vt 0.9167 1.0000
vt 0.9167 0.0000
vt 0.7500 0.0670
vt 0.9330 0.2500
vt 0.5000 0.5000
vt 0.9167 0.0000
vt 0.9583 1.0000
vt 1.0000 0.0000
vt 0.9330 0.2500
vt 1.0000 0.5000
vt 0.5000 0.5000
vt 0.0000 0.0000
vt 0.5000 1.0000
vt 0.0833 0.0000
vt 1.0000 0.5000
vt 0.9330 0.7500
vt 0.5000 0.5000
vt 0.0833 0.0000
vt 0.5417 1.0000
vt 0.1667 0.0000
vt 0.9330 0.7500
vt 0.7500 0.9330
vt 0.5000 0.5000
vt 0.1667 0.0000
vt 0.5833 1.0000
vt 0.2500 0.0000
vt 0.7500 0.9330
vt 0.5000 1.0000
vt 0.5000 0.5000
vt 0.2500 0.0000
vt 0.6250 1.0000
vt 0.3333 0.0000
vt 0.5000 1.0000
vt 0.2500 0.9330
vt 0.5000 0.5000
vt 0.3333 0.0000
vt 0.6667 1.0000
vt 0.4167 0.0000
vt 0.2500 0.9330
vt 0.0670 0.7500
vt 0.5000 0.5000
vt 0.4167 0.0000
vt 0.7083 1.0000
vt 0.5000 0.0000
vt 0.0670 0.7500
vt 0.0000 0.5000
vt 0.5000 0.5000
vt 0.5000 0.0000
vt 0.7500 1.0000
vt 0.5833 0.0000
vt 0.0000 0.5000
vt 0.0670 0.2500
vt 0.5000 0.5000
vt 0.5833 0.0000
vt 0.7917 1.0000
vt 0.6667 0.0000
vt 0.0670 0.2500
vt 0.2500 0.0670
vt 0.5000 0.5000
vt 0.6667 0.0000
vt 0.8333 1.0000
vt 0.7500 0.0000
vt 0.2500 0.0670
vt 0.5000 0.0000
vt 0.5000 0.5000
vt 0.7500 0.0000
vt 0.8750 1.0000
vt 0.8333 0.0000
vt 0.5000 0.0000
vt 0.7500 0.0670
vt 0.5000 0.5000
vt 0.8333 0.0000
vt 0.9167 1.0000
vt 0.9167 0.0000
vt 0.7500 0.0670
vt 0.9330 0.2500
vt 0.5000 0.5000
vt 0.9167 0.0000
vt 0.9583 1.0000
vt 1.0000 0.0000
vt 0.9330 0.2500
vt 1.0000 0.5000
vt 0.5000 0.5000

vn 0.9239 0.0000 0.3827
vn 0.0000 -1.0000 0.0000
vn 0.0000 1.0000 0.0000
vn 0.3827 0.0000 0.9239
vn 0.0000 -1.0000 0.0000
vn 0.0000 1.0000 0.0000
vn -0.3827 0.0000 0.9239
vn 0.0000 -1.0000 0.0000
vn 0.0000 1.0000 0.0000
vn -0.9239 0.0000 0.3827
vn 0.0000 -1.0000 0.0000
vn 0.0000 1.0000 0.0000
vn -0.9239 0.0000 -0.3827
vn 0.0000 -1.0000 0.0000
vn 0.0000 1.0000 0.0000
vn -0.3827 0.0000 -0.9239
vn 0.0000 -1.0000 0.0000
vn 0.0000 1.0000 0.0000
vn 0.3827 0.0000 -0.9239
vn 0.0000 -1.0000 0.0000
vn 0.0000 1.0000 0.0000
vn -0.9239 0.0000 0.3827
vn 0.0000 -1.0000 0.0000
vn 0.0000 1.0000 0.0000
vn 0.8968 0.3714 0.2403
vn 0.0000 -1.0000 0.0000
vn 0.6565 0.3714 0.6565
vn 0.0000 -1.0000 0.0000
vn 0.2403 0.3714 0.8968
vn 0.0000 -1.0000 0.0000
vn -0.2403 0.3714 0.8968
vn 0.0000 -1.0000 0.0000
vn -0.6565 0.3714 0.6565
vn 0.0000 -1.0000 0.0000
vn -0.8968 0.3714 0.2403
vn 0.0000 -1.0000 0.0000
vn -0.8968 0.3714 -0.2403
vn 0.0000 -1.0000 0.0000
vn -0.6565 0.3714 -0.6565
vn 0.0000 -1.0000 0.0000
vn -0.2403 0.3714 -0.8968
vn 0.0000 -1.0000 0.0000
vn 0.2403 0.3714 -0.8968
vn 0.0000 -1.0000 0.0000
vn 0.6565 0.3714 -0.6565
vn 0.0000 -1.0000 0.0000
vn -0.8968 0.3714 0.2403
vn 0.0000 -1.0000 0.0000
vn 0.8968 0.3714 0.2403
vn 0.0000 -1.0000 0.0000
vn 0.6565 0.3714 0.6565
vn 0.0000 -1.0000 0.0000
vn 0.2403 0.3714 0.8968
vn 0.0000 -1.0000 0.0000
vn -0.2403 0.3714 0.8968
vn 0.0000 -1.0000 0.0000
vn -0.6565 0.3714 0.6565
vn 0.0000 -1.0000 0.0000
vn -0.8968 0.3714 0.2403
vn 0.0000 -1.0000 0.0000
vn -0.8968 0.3714 -0.2403
vn 0.0000 -1.0000 0.0000
vn -0.6565 0.3714 -0.6565
vn 0.0000 -1.0000 0.0000
vn -0.2403 0.3714 -0.8968
vn 0.0000 -1.0000 0.0000
vn 0.2403 0.3714 -0.8968
vn 0.0000 -1.0000 0.0000
vn 0.6565 0.3714 -0.6565
vn 0.0000 -1.0000 0.0000
vn -0.8968 0.3714 0.2403
vn 0.0000 -1.0000 0.0000

usemtl trunk
f 1/1/1 2/2/1 3/3/1
f 1/1/1 3/3/1 4/4/1
f 5/5/2 6/6/2 7/7/2
f 8/8/3 9/9/3 10/10/3
f 11/11/4 12/12/4 13/13/4
f 11/11/4 13/13/4 14/14/4
f 15/15/5 16/16/5 17/17/5
f 18/18/6 19/19/6 20/20/6
f 21/21/7 22/22/7 23/23/7
f 21/21/7 23/23/7 24/24/7
f 25/25/8 26/26/8 27/27/8
f 28/28/9 29/29/9 30/30/9
f 31/31/10 32/32/10 33/33/10
f 31/31/10 33/33/10 34/34/10
f 35/35/11 36/36/11 37/37/11
f 38/38/12 39/39/12 40/40/12
f 41/41/13 42/42/13 43/43/13
f 41/41/13 43/43/13 44/44/13
f 45/45/14 46/46/14 47/47/14
f 48/48/15 49/49/15 50/50/15
f 51/51/16 52/52/16 53/53/16
f 51/51/16 53/53/16 54/54/16
f 55/55/17 56/56/17 57/57/17
f 58/58/18 59/59/18 60/60/18
f 61/61/19 62/62/19 63/63/19
f 61/61/19 63/63/19 64/64/19
f 65/65/20 66/66/20 67/67/20
f 68/68/21 69/69/21 70/70/21
f 71/71/22 72/72/22 73/73/22
f 71/71/22 73/73/22 74/74/22
f 75/75/23 76/76/23 77/77/23
f 78/78/24 79/79/24 80/80/24
usemtl foliage
f 81/81/25 82/82/25 83/83/25
f 84/84/26 85/85/26 86/86/26
f 87/87/27 88/88/27 89/89/27
f 90/90/28 91/91/28 92/92/28
f 93/93/29 94/94/29 95/95/29
f 96/96/30 97/97/30 98/98/30
f 99/99/31 100/100/31 101/101/31
f 102/102/32 103/103/32 104/104/32
f 105/105/33 106/106/33 107/107/33
f 108/108/34 109/109/34 110/110/34
f 111/111/35 112/112/35 113/113/35
f 114/114/36 115/115/36 116/116/36
f 117/117/37 118/118/37 119/119/37
f 120/120/38 121/121/38 122/122/38
f 123/123/39 124/124/39 125/125/39
f 126/126/40 127/127/40 128/128/40
f 129/129/41 130/130/41 131/131/41
f 132/132/42 133/133/42 134/134/42
f 135/135/43 136/136/43 137/137/43
f 138/138/44 139/139/44 140/140/44
f 141/141/45 142/142/45 143/143/45
f 144/144/46 145/145/46 146/146/46
f 147/147/47 148/148/47 149/149/47
f 150/150/48 151/151/48 152/152/48
f 153/153/49 154/154/49 155/155/49
f 156/156/50 157/157/50 158/158/50
f 159/159/51 160/160/51 161/161/51
f 162/162/52 163/163/52 164/164/52
f 165/165/53 166/166/53 167/167/53
f 168/168/54 169/169/54 170/170/54
f 171/171/55 172/172/55 173/173/55
f 174/174/56 175/175/56 176/176/56
f 177/177/57 178/178/57 179/179/57
f 180/180/58 181/181/58 182/182/58
f 183/183/59 184/184/59 185/185/59
f 186/186/60 187/187/60 188/188/60
f 189/189/61 190/190/61 191/191/61
f 192/192/62 193/193/62 194/194/62
f 195/195/63 196/196/63 197/197/63
f 198/198/64 199/199/64 200/200/64
f 201/201/65 202/202/65 203/203/65
f 204/204/66 205/205/66 206/206/66
f 207/207/67 208/208/67 209/209/67
f 210/210/68 211/211/68 212/212/68
f 213/213/69 214/214/69 215/215/69
f 216/216/70 217/217/70 218/218/70
f 219/219/71 220/220/71 221/221/71
f 222/222/72 223/223/72 224/224/72
